STARTFONT 2.3
FONT -FontForge-Shadows Into Light-Book-R-Normal--28-280-72-72-P-116-ISO10646-1
SIZE 28 72 72  2
FONTBOUNDINGBOX 40 45 -5 -12
COMMENT "Generated by fontforge, http://fontforge.sourceforge.net"
COMMENT "Copyright (c) 2010, Kimberly Geswein (kimberlygeswein.com)"
STARTPROPERTIES 40
FOUNDRY "FontForge"
FAMILY_NAME "Shadows Into Light"
WEIGHT_NAME "Book"
SLANT "R"
SETWIDTH_NAME "Normal"
ADD_STYLE_NAME ""
PIXEL_SIZE 28
POINT_SIZE 280
RESOLUTION_X 72
RESOLUTION_Y 72
SPACING "P"
AVERAGE_WIDTH 116
CHARSET_REGISTRY "ISO10646"
CHARSET_ENCODING "1"
FONTNAME_REGISTRY ""
CHARSET_COLLECTIONS "ISO8859-2 ISO8859-9 ISO8859-4 ISO10646-1"
BITS_PER_PIXEL 2
FONT_NAME "ShadowsIntoLight"
FACE_NAME "Shadows Into Light"
COPYRIGHT "Copyright (c) 2010, Kimberly Geswein (kimberlygeswein.com)"
FONT_VERSION "001.000"
FONT_ASCENT 22
FONT_DESCENT 6
UNDERLINE_POSITION 0
UNDERLINE_THICKNESS 0
X_HEIGHT 16
CAP_HEIGHT 19
RAW_ASCENT 799
RAW_DESCENT 200
NORM_SPACE 13
RELATIVE_WEIGHT 40
RELATIVE_SETWIDTH 50
SUPERSCRIPT_X 0
SUPERSCRIPT_Y 13
SUPERSCRIPT_SIZE 18
SUBSCRIPT_X 0
SUBSCRIPT_Y 3
SUBSCRIPT_SIZE 18
AVG_LOWERCASE_WIDTH 105
AVG_UPPERCASE_WIDTH 136
ENDPROPERTIES
CHARS 352
STARTCHAR space
ENCODING 32
SWIDTH 450 0
DWIDTH 13 0
BBX 1 1 0 0
BITMAP
00
ENDCHAR
STARTCHAR exclam
ENCODING 33
SWIDTH 137 0
DWIDTH 4 0
BBX 4 24 0 0
BITMAP
20
70
70
70
70
70
70
70
70
B0
B0
B0
B4
74
10
00
00
00
00
00
00
00
08
09
ENDCHAR
STARTCHAR quotedbl
ENCODING 34
SWIDTH 212 0
DWIDTH 6 0
BBX 5 8 0 14
BITMAP
7080
34C0
34C0
34C0
34C0
24C0
24C0
1400
ENDCHAR
STARTCHAR numbersign
ENCODING 35
SWIDTH 450 0
DWIDTH 13 0
BBX 12 15 1 3
BITMAP
000800
000D00
0A0D00
0A0E00
0B0FE0
076F00
7F9A00
1B0A05
070B78
070BD0
076F40
07D740
6F4340
670240
020100
ENDCHAR
STARTCHAR dollar
ENCODING 36
SWIDTH 445 0
DWIDTH 12 0
BBX 12 25 0 -3
BITMAP
000800
002800
002800
002800
002E80
007E40
02F800
0B2800
2C2800
B42800
B02800
B52D40
2FFEA4
001C0A
000C0A
000D1C
000EB4
000F80
007F00
009E00
000A00
000700
000340
000340
000240
ENDCHAR
STARTCHAR percent
ENCODING 37
SWIDTH 450 0
DWIDTH 13 0
BBX 12 22 0 0
BITMAP
0000A0
0001D0
0402C0
2F4380
748340
B08700
B18A00
770E00
3D1D00
001C00
002800
003428
00343E
007037
006073
00A07A
00903D
00C014
00C000
018000
014000
014000
ENDCHAR
STARTCHAR ampersand
ENCODING 38
SWIDTH 356 0
DWIDTH 10 0
BBX 9 13 0 3
BITMAP
001000
003000
003000
003000
003040
057780
3BFE00
60B800
90F400
53B400
7E3400
143400
002400
ENDCHAR
STARTCHAR quotesingle
ENCODING 39
SWIDTH 155 0
DWIDTH 4 0
BBX 2 9 1 9
BITMAP
40
E0
E0
E0
A0
A0
A0
60
10
ENDCHAR
STARTCHAR parenleft
ENCODING 40
SWIDTH 291 0
DWIDTH 8 0
BBX 8 23 0 0
BITMAP
0009
002C
0074
00E0
02C0
0340
0B00
0D00
1C00
2800
3400
7000
7000
7000
B000
7000
7000
3400
2800
1C00
0A00
0780
01B4
ENDCHAR
STARTCHAR parenright
ENCODING 41
SWIDTH 241 0
DWIDTH 7 0
BBX 6 21 0 0
BITMAP
6000
2C00
0A00
0340
01C0
00D0
00A0
0060
0070
0070
0030
0030
0030
0070
00A0
00E0
01D0
02C0
0340
0600
0400
ENDCHAR
STARTCHAR asterisk
ENCODING 42
SWIDTH 481 0
DWIDTH 13 0
BBX 13 14 0 2
BITMAP
00100000
00300000
00307000
0030E000
24378000
2FBE5A80
06FFF900
05FF4000
7FFFD000
11E8B900
03DC0900
0F4C0000
1D0D0000
04090000
ENDCHAR
STARTCHAR plus
ENCODING 43
SWIDTH 466 0
DWIDTH 13 0
BBX 13 13 0 3
BITMAP
00100000
00300000
00300000
00300000
00300000
00301A80
003BF900
15B90000
7EB40000
10740000
00340000
00240000
00240000
ENDCHAR
STARTCHAR comma
ENCODING 44
SWIDTH 112 0
DWIDTH 3 0
BBX 2 6 1 -3
BITMAP
E0
F0
E0
E0
D0
C0
ENDCHAR
STARTCHAR hyphen
ENCODING 45
SWIDTH 399 0
DWIDTH 11 0
BBX 11 4 0 5
BITMAP
0002F8
006FE4
1BE900
690000
ENDCHAR
STARTCHAR period
ENCODING 46
SWIDTH 128 0
DWIDTH 4 0
BBX 2 2 1 0
BITMAP
A0
E0
ENDCHAR
STARTCHAR slash
ENCODING 47
SWIDTH 306 0
DWIDTH 9 0
BBX 8 22 0 -2
BITMAP
0005
000A
000D
001C
0028
0034
0070
00A0
00D0
01C0
0280
0340
0300
0600
0900
0D00
1C00
2800
3400
7000
A000
9000
ENDCHAR
STARTCHAR zero
ENCODING 48
SWIDTH 308 0
DWIDTH 9 0
BBX 7 15 1 0
BITMAP
0B80
28A0
7034
9024
C018
C018
C018
D018
D018
9018
9024
6034
3070
29D0
0F80
ENDCHAR
STARTCHAR one
ENCODING 49
SWIDTH 112 0
DWIDTH 3 0
BBX 2 18 1 0
BITMAP
40
C0
C0
C0
C0
C0
C0
C0
C0
C0
D0
D0
D0
D0
D0
D0
90
90
ENDCHAR
STARTCHAR two
ENCODING 50
SWIDTH 512 0
DWIDTH 14 0
BBX 14 16 0 0
BITMAP
007E0000
02EB4000
0B434000
2C028000
70034000
00034000
00074000
00070000
000A0000
000D0000
002C0000
00340040
00B01BD0
01E6F900
02FA4000
02400000
ENDCHAR
STARTCHAR three
ENCODING 51
SWIDTH 461 0
DWIDTH 13 0
BBX 13 20 0 0
BITMAP
00010000
006F8000
0BE6C000
7D028000
60034000
000A0000
002C0000
00740000
01FBE400
07F45E00
0F800740
00000340
00000340
00000A00
00001D00
00007800
0002E000
000F4000
003D0000
00240000
ENDCHAR
STARTCHAR four
ENCODING 52
SWIDTH 503 0
DWIDTH 14 0
BBX 14 22 0 0
BITMAP
00006000
0000F000
0001F000
0003F000
000BF000
000EB000
002DB000
0074B000
00E0B000
01C0B000
0340B040
0B01BFE0
2E6FF500
BF94B000
5000B000
0000B000
0000B000
0000B000
0000B000
0000B000
0000B000
00006000
ENDCHAR
STARTCHAR five
ENCODING 53
SWIDTH 478 0
DWIDTH 13 0
BBX 13 20 0 0
BITMAP
00000100
14016F80
7D6E9000
7F900000
7E000000
2C000000
28000000
38014000
381FD000
38B5B000
3A807000
2E007000
2800A000
0000E000
0002C000
00078000
000E0000
002C0000
00740000
00900000
ENDCHAR
STARTCHAR six
ENCODING 54
SWIDTH 375 0
DWIDTH 11 0
BBX 10 23 0 0
BITMAP
024000
034000
074000
070000
0B0000
0A0000
0D0000
0D0000
1C0000
180000
280000
240000
3406E0
301EA0
707860
70A050
71C0C0
724180
370340
3A0A00
2E1D00
0FB800
07D000
ENDCHAR
STARTCHAR seven
ENCODING 55
SWIDTH 458 0
DWIDTH 13 0
BBX 12 21 0 0
BITMAP
000159
05BFFE
7FE96D
00002C
000078
000074
0000B0
0000A0
0000D0
0001C0
0001C0
000280
000280
000240
000340
000340
000340
000380
000380
0003C0
0001C0
ENDCHAR
STARTCHAR eight
ENCODING 56
SWIDTH 333 0
DWIDTH 9 0
BBX 9 20 0 0
BITMAP
001400
01FE00
0A6F00
1C7E40
380240
740300
700300
700A00
340D00
282800
0A7400
02F000
00F000
01E800
024900
020200
060340
090340
0A5A00
07F800
ENDCHAR
STARTCHAR nine
ENCODING 57
SWIDTH 475 0
DWIDTH 13 0
BBX 13 19 0 0
BITMAP
000BE000
007E7C00
01E07D00
0740FD00
0E02DA00
2C078A00
341F0A00
707C0A00
A1F40A00
BFC00A00
29000600
00000700
00000700
00000700
00000700
00000740
00000340
00000340
00000300
ENDCHAR
STARTCHAR colon
ENCODING 58
SWIDTH 120 0
DWIDTH 3 0
BBX 3 9 0 3
BITMAP
70
20
00
00
00
00
00
24
24
ENDCHAR
STARTCHAR semicolon
ENCODING 59
SWIDTH 121 0
DWIDTH 3 0
BBX 2 12 1 -3
BITMAP
40
D0
00
00
00
00
E0
F0
E0
E0
D0
C0
ENDCHAR
STARTCHAR less
ENCODING 60
SWIDTH 409 0
DWIDTH 11 0
BBX 10 15 1 3
BITMAP
000020
0000B0
0007D0
001F40
007D00
02E000
0B4000
7C0000
B40000
3E0000
0BD000
01F900
002F90
0002D0
000040
ENDCHAR
STARTCHAR equal
ENCODING 61
SWIDTH 433 0
DWIDTH 12 0
BBX 12 8 0 2
BITMAP
0015A4
2BFF90
1A5000
000005
0006BD
01BE90
7F9000
140000
ENDCHAR
STARTCHAR greater
ENCODING 62
SWIDTH 450 0
DWIDTH 13 0
BBX 10 16 1 3
BITMAP
100000
B80000
2F4000
06F400
007E40
0007D0
0000B0
0000A0
0002C0
000B40
003D00
01F400
0BD000
2E0000
780000
500000
ENDCHAR
STARTCHAR question
ENCODING 63
SWIDTH 445 0
DWIDTH 12 0
BBX 12 26 0 0
BITMAP
000690
06FEBD
6F900B
B9000B
00000A
00001D
000038
0000B0
0002D0
000F40
003D00
00B400
01D000
01D000
01E440
00BF80
000400
000000
000000
000000
000000
000000
000000
000000
002400
002800
ENDCHAR
STARTCHAR at
ENCODING 64
SWIDTH 945 0
DWIDTH 26 0
BBX 26 25 0 0
BITMAP
0000006FF90000
00000BE55B4000
00007D0001D000
0001E000007000
00074000002800
001D0014001C00
003401FE000D00
00A00B96000D00
01C02D1D000D00
0340743C000D00
0B01D0BC000D00
0D0281DC001C00
1C070349002800
280E0A0A007400
381D2807EAD000
341DE000690000
741F4000000000
74000000000000
380000000001E0
3C0000000003D0
2D000000002E00
0F00000002F400
07D000006F4000
00BE956BE40000
001AFFE9000000
ENDCHAR
STARTCHAR A
ENCODING 65
SWIDTH 390 0
DWIDTH 11 0
BBX 14 21 0 0
BITMAP
03400000
07800000
07D00000
0BE00000
0B700000
0A340000
0E280000
0E1C0000
0D0D0000
1D0A0000
1D070140
1D07AFD0
2C07E400
2C1FC000
2FE6C000
2E00D000
3800A000
34007000
34007000
74003400
10001400
ENDCHAR
STARTCHAR B
ENCODING 66
SWIDTH 537 0
DWIDTH 15 0
BBX 15 21 0 0
BITMAP
00005000
001BF800
61F92C00
7B802800
3D007000
2C00D000
2C038000
1C0A1A90
1C2EE5B4
0DBD0034
0FF00070
0FC000D0
0B400280
0B000A00
07002C00
0700B400
0342D000
034B4000
025D0000
02800000
01400000
ENDCHAR
STARTCHAR C
ENCODING 67
SWIDTH 487 0
DWIDTH 14 0
BBX 13 21 0 0
BITMAP
00050000
002FD000
00B4B000
01D01000
02800000
03400000
07000000
0A000000
0D000000
1C000000
28000000
28000000
34000000
340002C0
70000380
70000B00
70001D00
34007400
2801D000
1E5F4000
07F80000
ENDCHAR
STARTCHAR D
ENCODING 68
SWIDTH 554 0
DWIDTH 16 0
BBX 15 21 0 0
BITMAP
02000000
03540000
0BFFF900
2F805BD0
6B4000B4
07400028
0340001C
03400028
03400024
03400070
038000A0
028001C0
02800740
02800E00
02802C00
0180B400
0182D000
018B8000
019E0000
00780000
00600000
ENDCHAR
STARTCHAR E
ENCODING 69
SWIDTH 474 0
DWIDTH 13 0
BBX 12 21 1 0
BITMAP
000010
901BD0
F1BD00
BBD000
BE0000
700000
700000
700000
7001D0
341B40
34B800
3B8000
3D0000
380000
38001A
3800B8
3806D0
382E00
3EF400
3F8000
280000
ENDCHAR
STARTCHAR F
ENCODING 70
SWIDTH 428 0
DWIDTH 12 0
BBX 12 20 0 0
BITMAP
000005
2401B9
741B90
79B900
7F9000
790000
380000
380000
380000
38001D
3801B4
380B80
3CB800
3FD000
2E0000
2C0000
2C0000
2C0000
1C0000
080000
ENDCHAR
STARTCHAR G
ENCODING 71
SWIDTH 591 0
DWIDTH 17 0
BBX 16 22 0 -3
BITMAP
00000400
0000BE00
0007E400
001D0000
00380000
00A00000
01D00000
03800005
070006FE
0E007FF8
1C0000B4
280000F4
340002F0
740007F0
70001FB0
700078A0
7906E0B0
1FFF40B0
02A400B0
000000B0
000000B0
00000070
ENDCHAR
STARTCHAR H
ENCODING 72
SWIDTH 424 0
DWIDTH 12 0
BBX 10 19 1 0
BITMAP
400200
D00340
D00380
D00280
D00280
D001C0
D002C0
D002C0
E007C0
E01ED0
E1B4D0
BF80D0
B800A0
B000A0
A000A0
A000A0
A000B0
A00070
A00060
ENDCHAR
STARTCHAR I
ENCODING 73
SWIDTH 153 0
DWIDTH 4 0
BBX 3 21 1 0
BITMAP
60
70
70
70
74
34
34
34
34
34
34
34
34
34
34
34
34
34
34
28
24
ENDCHAR
STARTCHAR J
ENCODING 74
SWIDTH 371 0
DWIDTH 10 0
BBX 10 22 0 -2
BITMAP
000600
000700
000700
000740
000740
000340
000380
000280
0002C0
0002C0
0001C0
0001D0
0001D0
0000D0
0000D0
0000D0
8000D0
6000D0
3400D0
1C01C0
0B5780
01A900
ENDCHAR
STARTCHAR K
ENCODING 75
SWIDTH 524 0
DWIDTH 15 0
BBX 14 19 1 0
BITMAP
80000000
D0002000
A000D000
A0038000
A00B4000
701D0000
70380000
70B00000
35D00000
36800000
3F000000
3E000000
2D000000
2E500000
2FFFFFD0
2C000000
1C000000
0D000000
08000000
ENDCHAR
STARTCHAR L
ENCODING 76
SWIDTH 537 0
DWIDTH 15 0
BBX 15 18 0 0
BITMAP
24000000
78000000
38000000
38000000
3C000000
3C000000
3C000000
3C000000
3C000000
2C000000
2C000000
2C000014
2C0001B8
2C001B90
2D01F800
2D2F9000
2FF90000
2F900000
ENDCHAR
STARTCHAR M
ENCODING 77
SWIDTH 682 0
DWIDTH 19 0
BBX 17 22 1 0
BITMAP
4000000400
F400002C00
FD00003C00
AE00007C00
A74000AC00
A2C000DD00
61D001CD00
60B0028D00
7074034900
702C070A00
701D0A0A00
740B0D0A00
74075C0600
7402E80700
7401F40700
7800A00300
3800000340
3800000340
3C00000380
3C000002C0
3C000002C0
2C00000280
ENDCHAR
STARTCHAR N
ENCODING 78
SWIDTH 541 0
DWIDTH 15 0
BBX 13 22 1 0
BITMAP
00000400
00000E00
00000B00
00000B00
D0000700
F4000700
FC000700
FE000700
BB800740
B2D00740
B0B00340
70380340
701E0340
74074340
3402C340
3400E740
38003B40
28001F80
2C000BC0
2C0003C0
1C000240
18000000
ENDCHAR
STARTCHAR O
ENCODING 79
SWIDTH 382 0
DWIDTH 11 0
BBX 11 19 0 0
BITMAP
002A00
01FF80
03D1E0
0700B0
0E0070
1D0074
2C0074
280074
380074
740074
7000B0
7000B0
B000E0
B001D0
7002C0
740740
381E00
1FF800
0BE000
ENDCHAR
STARTCHAR P
ENCODING 80
SWIDTH 508 0
DWIDTH 14 0
BBX 14 23 0 0
BITMAP
00015400
062FFF40
0FE41BD0
2F4000E0
7E0000A0
0E0001D0
0E000380
0D001F00
0D007C00
0E06E000
0E6F4000
0FF40000
0F400000
0F000000
0F000000
0B000000
0B000000
0B000000
0B000000
0B000000
07000000
07000000
02000000
ENDCHAR
STARTCHAR Q
ENCODING 81
SWIDTH 512 0
DWIDTH 14 0
BBX 14 21 0 0
BITMAP
00FBF400
03F96D00
07C00600
0B400340
0E000240
1D000180
2C000180
28000180
34000180
340001C0
34008180
7001D180
7400A180
34007640
34003B40
28001F00
28000E00
1D001F40
0B007780
03D6D1D0
00BE4080
ENDCHAR
STARTCHAR R
ENCODING 82
SWIDTH 503 0
DWIDTH 14 0
BBX 13 22 1 0
BITMAP
F0055000
F0BFFD00
FB941F40
FD000740
F0000E00
E0007800
E002D000
E01E0000
E1F40000
EB800000
FD000000
F4000000
FE400000
EBE40000
D1BE0000
D01BE000
D000BE40
D0000BC0
D0000000
D0000000
D0000000
90000000
ENDCHAR
STARTCHAR S
ENCODING 83
SWIDTH 541 0
DWIDTH 15 0
BBX 15 21 0 0
BITMAP
00001400
0006FE00
002D6800
01E00000
07800000
0E000000
2C000000
74000000
B0000000
A0000000
70000000
39000000
0BE54000
005AFF90
000001B4
00000074
000002E0
00006F40
001BE400
01FE4000
01400000
ENDCHAR
STARTCHAR T
ENCODING 84
SWIDTH 595 0
DWIDTH 17 0
BBX 20 20 0 0
BITMAP
0000701569
0005BFFFE4
2BFFF95000
BA50740000
0000340000
0000380000
0000280000
0000280000
0000280000
00002C0000
00001C0000
00001D0000
00001D0000
00000D0000
00000E0000
00000E0000
00000B0000
00000B0000
0000070000
0000070000
ENDCHAR
STARTCHAR U
ENCODING 85
SWIDTH 450 0
DWIDTH 13 0
BBX 11 21 1 -3
BITMAP
000010
900038
E00038
E00078
E00078
E000B8
E000B8
E000F4
E000F4
E001F4
E002F4
E002B4
E00374
A00B28
A00D28
742C28
3EF01C
0A401C
00001C
00001C
00000C
ENDCHAR
STARTCHAR V
ENCODING 86
SWIDTH 524 0
DWIDTH 15 0
BBX 14 20 0 0
BITMAP
000000B0
000000A0
000000E0
500001D0
B40001C0
380002C0
2C000380
0E000740
0B000740
07800B00
02C00E00
01E00E00
00B01D00
00742C00
003C3C00
001D3800
000F7400
000BF400
0003F000
0000A000
ENDCHAR
STARTCHAR W
ENCODING 87
SWIDTH 878 0
DWIDTH 25 0
BBX 24 22 0 -1
BITMAP
000000000009
00000000000D
00000000001D
10000050002C
740000F00028
780001F40034
2C0002F80074
1D00037C0070
0E00072D00A0
0B000A1D00D0
07400D0E01D0
03800C0701C0
02C01C034280
02D02802C340
01E03401D740
00F07000A700
00B4A0007E00
0078D0002E00
003EC0001D00
002F80000400
001F40000000
000500000000
ENDCHAR
STARTCHAR X
ENCODING 88
SWIDTH 461 0
DWIDTH 13 0
BBX 11 20 1 0
BITMAP
000008
00001C
700034
7400B0
2C00D0
1D0280
0B0740
074A00
02DD00
01F800
00F000
00F400
02FC00
075D00
0E0B00
2C0340
7402C0
F000E0
9000B0
000070
ENDCHAR
STARTCHAR Y
ENCODING 89
SWIDTH 483 0
DWIDTH 14 0
BBX 13 22 0 0
BITMAP
00000080
000001C0
00000280
00000340
50000700
74000A00
2C000D00
1E001C00
07802C00
02D03800
00B47400
003DB000
000FD000
0007C000
00038000
00074000
00070000
000A0000
000D0000
001C0000
00280000
00240000
ENDCHAR
STARTCHAR Z
ENCODING 90
SWIDTH 670 0
DWIDTH 19 0
BBX 18 19 0 0
BITMAP
3FFFFFFD00
000055BD00
000000B800
000001E000
000007C000
00000F4000
00002D0000
0000B80000
0001E00000
0007C00000
000F400000
002D000000
0078000000
01E0000000
03C0000000
0B40000000
2D00000150
7FFFFFFFF0
3FAAAAA950
ENDCHAR
STARTCHAR bracketleft
ENCODING 91
SWIDTH 470 0
DWIDTH 13 0
BBX 13 34 0 -3
BITMAP
7FFFF800
79550000
74000000
34000000
34000000
34000000
34000000
28000000
28000000
28000000
28000000
1C000000
1C000000
1C000000
1C000000
0D000000
0D000000
0D000000
0A000000
0A000000
0A000000
0A000000
06000000
07000000
07000000
07000000
07000000
07000000
07000000
07000000
07400540
0795BE40
07FE9000
02900000
ENDCHAR
STARTCHAR backslash
ENCODING 92
SWIDTH 554 0
DWIDTH 16 0
BBX 15 28 0 0
BITMAP
70000000
38000000
1C000000
0A000000
07000000
02800000
01C00000
00E00000
00700000
00380000
001C0000
000E0000
000B0000
00034000
0002C000
0001D000
0000B000
00007400
00003C00
00001D00
00000F00
00000740
000003C0
000002D0
000000F0
000000B4
00000078
0000002C
ENDCHAR
STARTCHAR bracketright
ENCODING 93
SWIDTH 512 0
DWIDTH 14 0
BBX 14 36 0 -3
BITMAP
15AABF40
FFFAAF80
14000740
00000740
00000740
00000740
00000740
00000740
00000740
00000740
00000740
00000740
00000740
00000740
00000340
00000340
00000340
00000340
00000380
00000380
00000280
00000280
00000280
00000280
000002C0
000002C0
000002C0
000002C0
000001C0
000001D0
000001D0
000001D0
000001D0
000017E0
0006FF90
000A9400
ENDCHAR
STARTCHAR asciicircum
ENCODING 94
SWIDTH 390 0
DWIDTH 11 0
BBX 10 8 1 18
BITMAP
028000
07E000
0E3800
1C1D00
340740
A002D0
D00090
400000
ENDCHAR
STARTCHAR underscore
ENCODING 95
SWIDTH 612 0
DWIDTH 17 0
BBX 17 5 0 0
BITMAP
0000005B40
00006BFF40
006BFE9400
1BFE500000
7A40000000
ENDCHAR
STARTCHAR grave
ENCODING 96
SWIDTH 155 0
DWIDTH 4 0
BBX 4 5 0 16
BITMAP
50
74
3C
1D
04
ENDCHAR
STARTCHAR a
ENCODING 97
SWIDTH 366 0
DWIDTH 10 0
BBX 10 15 0 0
BITMAP
002F40
00BF80
01E380
03C380
0B4780
0E0B80
2D0F80
382EC0
7439C0
B0B0D0
A1E0D0
D3C0D0
AF40A0
BD00A0
240050
ENDCHAR
STARTCHAR b
ENCODING 98
SWIDTH 442 0
DWIDTH 12 0
BBX 11 24 1 0
BITMAP
500000
B00000
B00000
B00000
B00000
B00000
B00000
B00000
A00000
A00540
A07FD0
A1FAF0
A78074
BE0034
F80034
F40074
E000B0
D001E0
D007C0
D01F40
D0BD00
D7E000
FF4000
A40000
ENDCHAR
STARTCHAR c
ENCODING 99
SWIDTH 390 0
DWIDTH 11 0
BBX 10 17 0 0
BITMAP
005000
03F800
0B6800
1E2C00
1D0C00
2C0400
380000
340000
340000
700000
700020
700070
3000E0
3401D0
2C02C0
0E5F40
06F800
ENDCHAR
STARTCHAR d
ENCODING 100
SWIDTH 316 0
DWIDTH 9 0
BBX 8 28 0 -3
BITMAP
0005
000E
000E
000A
000A
000A
000A
000A
0006
0006
005A
07FE
1F4E
2D0A
380A
740A
700A
A00E
A01E
902E
903A
A076
A1D6
BB86
2906
0007
0006
0001
ENDCHAR
STARTCHAR e
ENCODING 101
SWIDTH 461 0
DWIDTH 13 0
BBX 13 15 0 0
BITMAP
006A4000
01FBD000
03D0F000
0741E000
0F0B8000
1EBD0000
2FD00000
7E000100
FC000B40
2C001E00
1C003C00
1C00B400
1C02D000
0E6E0000
07F40000
ENDCHAR
STARTCHAR f
ENCODING 102
SWIDTH 345 0
DWIDTH 10 0
BBX 9 25 1 0
BITMAP
02D000
07F400
0B6800
0F0C00
0E0400
1E0000
1E0000
1D0000
1D0000
1D0000
1D0100
1C2F40
1EFD00
2F9000
FC0000
4D0000
0D0000
0D0000
0E0000
0E0000
0E0000
0A0000
0A0000
0A0000
0A0000
ENDCHAR
STARTCHAR g
ENCODING 103
SWIDTH 437 0
DWIDTH 12 0
BBX 12 28 0 -12
BITMAP
000140
001FF0
0079F4
01D0F4
0382F8
0B03B8
0D0778
2C0E38
381D3C
74383C
70743C
B0E03C
7BC02C
3F402D
04002D
00002D
00002D
00002D
00002C
00003C
000038
000074
0000B0
0000E0
0002C0
000B40
05BE00
06E400
ENDCHAR
STARTCHAR h
ENCODING 104
SWIDTH 466 0
DWIDTH 13 0
BBX 12 22 1 -1
BITMAP
800000
D00000
D00000
D00000
D00000
D00000
D00000
D006A0
E02FFC
E07D1C
E0F41C
E2E01D
E3C01D
E7801D
EB001D
EE001D
FC001D
F8001D
F0001D
E0001D
80000D
000004
ENDCHAR
STARTCHAR i
ENCODING 105
SWIDTH 132 0
DWIDTH 4 0
BBX 3 21 0 0
BITMAP
60
70
00
00
00
24
38
38
38
38
38
38
38
34
34
34
34
34
34
38
38
ENDCHAR
STARTCHAR j
ENCODING 106
SWIDTH 112 0
DWIDTH 3 0
BBX 8 33 -5 -10
BITMAP
0004
000C
0000
0000
0000
0000
0000
0000
0004
001D
001D
001D
001D
001D
000D
000D
000D
000D
000E
000E
000A
000A
000A
000B
000B
0007
000B
000A
400E
B01D
2D2C
07F4
0050
ENDCHAR
STARTCHAR k
ENCODING 107
SWIDTH 428 0
DWIDTH 12 0
BBX 12 23 0 -1
BITMAP
040000
2C0000
2C0000
2C0000
2C0000
2C0004
2C002D
2C0078
2C00F4
2C02E0
3807C0
380F40
382E00
387C00
39F000
3FC000
3E0000
3F4000
3BE400
746F94
7402FC
700018
600000
ENDCHAR
STARTCHAR l
ENCODING 108
SWIDTH 137 0
DWIDTH 4 0
BBX 3 24 0 0
BITMAP
60
70
34
34
34
24
24
28
28
28
28
18
18
18
1C
1C
1C
1C
1C
1C
2C
2C
2C
04
ENDCHAR
STARTCHAR m
ENCODING 109
SWIDTH 579 0
DWIDTH 16 0
BBX 15 17 1 0
BITMAP
90000000
D0000000
E0000000
E0500F40
A2F42F80
A3F83FC0
A7BC76D0
A76CA1D0
AB1DD1D0
AA0EC0D0
BD0FC0D0
7D0B80D0
7C0740E0
780600E0
780000B0
74000074
60000000
ENDCHAR
STARTCHAR n
ENCODING 110
SWIDTH 483 0
DWIDTH 14 0
BBX 12 17 1 0
BITMAP
000040
C00BE0
D02FF0
D07838
E0B428
E0E01C
E1D01C
B2C01D
B3801D
B7401D
BB001D
BE000D
7D000D
7D000D
7C000D
7C000D
340004
ENDCHAR
STARTCHAR o
ENCODING 111
SWIDTH 266 0
DWIDTH 7 0
BBX 7 16 0 0
BITMAP
0100
0FD0
1EA0
2824
3428
341C
701C
701C
702C
702C
7028
7034
7070
74E0
3FC0
2E00
ENDCHAR
STARTCHAR p
ENCODING 112
SWIDTH 482 0
DWIDTH 14 0
BBX 13 23 0 -8
BITMAP
20000000
7406FE00
742E5680
75E002C0
7F400380
3D000B40
38001D00
3400B800
3402D000
341F4000
38BD0000
3FE00000
3F400000
38000000
38000000
34000000
34000000
34000000
34000000
34000000
34000000
34000000
20000000
ENDCHAR
STARTCHAR q
ENCODING 113
SWIDTH 408 0
DWIDTH 11 0
BBX 12 21 0 -8
BITMAP
001F80
00B9D0
02D0D0
0741E0
0E01E0
1C02E0
2803B0
340770
700A74
701D34
79B834
2F9038
000028
00002C
00001C
00001C
00001D
00000D
00000E
00000E
000006
ENDCHAR
STARTCHAR r
ENCODING 114
SWIDTH 396 0
DWIDTH 11 0
BBX 11 15 0 0
BITMAP
000040
701FF4
747E50
34B400
38E000
29D000
29C000
1DC000
1EC000
0EC000
0F8000
0B8000
0B8000
078000
074000
ENDCHAR
STARTCHAR s
ENCODING 115
SWIDTH 366 0
DWIDTH 10 0
BBX 10 15 0 -1
BITMAP
006F40
02D600
0E0000
2C0000
380000
740000
700A80
3EFFE0
2F90B0
0000E0
0002C0
001F40
007D00
02F400
024000
ENDCHAR
STARTCHAR t
ENCODING 116
SWIDTH 268 0
DWIDTH 8 0
BBX 9 23 -1 -1
BITMAP
010000
074000
074000
074000
070000
070000
070540
07BF80
1FF800
BF4000
BB0000
070000
074000
074000
074000
074000
074000
034000
034000
034000
034000
038000
014000
ENDCHAR
STARTCHAR u
ENCODING 117
SWIDTH 387 0
DWIDTH 11 0
BBX 9 15 1 -1
BITMAP
800500
D00700
D00700
D00B00
D00B00
E00B00
E00B00
E00B00
E01F00
A02F00
B07F40
70F740
3BD380
1F4280
000140
ENDCHAR
STARTCHAR v
ENCODING 118
SWIDTH 354 0
DWIDTH 10 0
BBX 9 15 0 0
BITMAP
0002C0
0002C0
0002C0
A002C0
7802C0
3C02C0
1E02C0
0B42C0
0782C0
02D380
00F380
007F80
002F80
000F80
000780
ENDCHAR
STARTCHAR w
ENCODING 119
SWIDTH 566 0
DWIDTH 16 0
BBX 14 15 1 0
BITMAP
00040040
C02C00D0
E03E00E0
B03B40E0
7436C0E0
3874D0E0
2C74B0E0
1D7438E0
0BB41DE0
07F00AE0
03F003E0
02F002E0
01F000F0
00F00010
00600000
ENDCHAR
STARTCHAR x
ENCODING 120
SWIDTH 454 0
DWIDTH 13 0
BBX 12 19 0 -2
BITMAP
000700
000B40
000B40
000B00
740B00
7C0A00
1E0D00
078D00
01FC00
007D00
003F00
007BC0
00B1F0
00B03C
00E00F
01D002
02D000
02C000
028000
ENDCHAR
STARTCHAR y
ENCODING 121
SWIDTH 363 0
DWIDTH 10 0
BBX 10 26 0 -11
BITMAP
000050
0000A0
6000A0
7800A0
2D00E0
0E00E0
0B40E0
03C0D0
01E0D0
00B4D0
003DD0
001FD0
000BD0
0003D0
0002D0
0001C0
0001C0
0001C0
0002C0
000280
000280
000280
000380
000340
000340
000140
ENDCHAR
STARTCHAR z
ENCODING 122
SWIDTH 618 0
DWIDTH 17 0
BBX 17 14 1 0
BITMAP
0002F00000
006FF00000
5BE5F00000
F902D00000
0003C00000
000B400000
000E000000
002C000000
0038000000
0070000000
00A0005A40
00E06BFF80
01FFFE9400
02FA400000
ENDCHAR
STARTCHAR braceleft
ENCODING 123
SWIDTH 348 0
DWIDTH 10 0
BBX 10 27 0 -3
BITMAP
006A40
02E5D0
078040
0A0000
0E0000
0A0000
070000
038000
01D000
01E000
7F8000
3C0000
0A0000
034000
17C000
7F4000
B80000
B00000
A00000
A00000
A00000
700000
380000
2E0000
0BE400
01FD00
000400
ENDCHAR
STARTCHAR bar
ENCODING 124
SWIDTH 137 0
DWIDTH 4 0
BBX 3 24 0 0
BITMAP
60
70
34
34
34
24
24
28
28
28
28
18
18
18
1C
1C
1C
1C
1C
1C
2C
2C
2C
04
ENDCHAR
STARTCHAR braceright
ENCODING 125
SWIDTH 348 0
DWIDTH 10 0
BBX 9 27 0 -3
BITMAP
040000
7FD000
C0B400
003800
002C00
001C00
002800
003400
00A000
00D000
01E500
002F40
000E00
002800
007000
00BA00
002F40
000780
000280
000280
000280
000280
000740
000B00
007D00
06F800
0F9000
ENDCHAR
STARTCHAR asciitilde
ENCODING 126
SWIDTH 458 0
DWIDTH 13 0
BBX 11 5 1 15
BITMAP
1F9014
B9E0B4
E0B5F0
902F80
000500
ENDCHAR
STARTCHAR nonbreakingspace
ENCODING 160
SWIDTH 450 0
DWIDTH 13 0
BBX 1 1 0 0
BITMAP
00
ENDCHAR
STARTCHAR exclamdown
ENCODING 161
SWIDTH 137 0
DWIDTH 4 0
BBX 3 18 0 -4
BITMAP
08
04
00
00
00
00
00
20
74
70
70
70
70
70
30
30
30
30
ENDCHAR
STARTCHAR cent
ENCODING 162
SWIDTH 394 0
DWIDTH 11 0
BBX 10 22 0 -2
BITMAP
005000
00A000
00A000
00A000
03F800
0B7F00
1E7780
2D3140
2C3000
383000
343000
343000
702000
702020
7020B0
3024E0
3425D0
2C26C0
0E7F00
06F800
003400
002400
ENDCHAR
STARTCHAR sterling
ENCODING 163
SWIDTH 539 0
DWIDTH 15 0
BBX 15 20 0 -1
BITMAP
00001A00
0001FFC0
00078090
001D0000
00380000
00700000
00A00000
05EBD000
BFE90000
16C00000
02800000
03800000
03400000
03400000
03400000
03401400
0347FF90
03AE56F4
02E00040
00400000
ENDCHAR
STARTCHAR currency
ENCODING 164
SWIDTH 500 0
DWIDTH 14 0
BBX 11 17 1 2
BITMAP
000010
000038
090078
0B6DF0
0BFFD0
03C2C0
0741C0
0701C0
0700D0
0700D0
0301C0
0743C0
0F9B80
2DFFC0
7865D0
F000D0
900000
ENDCHAR
STARTCHAR yen
ENCODING 165
SWIDTH 478 0
DWIDTH 13 0
BBX 11 23 1 0
BITMAP
000014
18007C
1E00F4
0F41E0
0783D0
03C780
02EB00
01FE00
00BC00
007C00
002800
002800
007AB8
2FFFE4
1AB900
003800
1ABFF0
6A7800
003800
003800
003800
003800
002400
ENDCHAR
STARTCHAR brokenbar
ENCODING 166
SWIDTH 137 0
DWIDTH 4 0
BBX 3 24 0 0
BITMAP
60
70
30
34
34
34
24
28
28
14
00
18
18
1C
1C
1C
1C
1C
1C
1C
1C
2C
2C
04
ENDCHAR
STARTCHAR section
ENCODING 167
SWIDTH 366 0
DWIDTH 10 0
BBX 10 22 0 -1
BITMAP
006A00
02EA00
0B0000
2C0000
380000
700000
B00540
75BFD0
3FE6E0
0E01E0
2C02C0
380B40
742D00
70BA80
3FFFE0
2F90B0
0000E0
0002C0
001F40
007D00
02F400
024000
ENDCHAR
STARTCHAR dieresis
ENCODING 168
SWIDTH 306 0
DWIDTH 9 0
BBX 6 2 2 19
BITMAP
A1D0
D180
ENDCHAR
STARTCHAR copyright
ENCODING 169
SWIDTH 485 0
DWIDTH 14 0
BBX 14 19 0 0
BITMAP
000AA000
007FBC00
00F41E00
02C00740
07460380
0E3F82C0
1DB1C2C0
28A042D0
34D002C0
34D002C0
71D00FC0
70D02F80
B0A0BF00
B07FEE00
70192C00
7400B400
3806D000
1FFF4000
0BE40000
ENDCHAR
STARTCHAR ordfeminine
ENCODING 170
SWIDTH 227 0
DWIDTH 6 0
BBX 6 7 0 4
BITMAP
07C0
1CC0
35D0
6290
8A60
9820
6020
ENDCHAR
STARTCHAR guillemotleft
ENCODING 171
SWIDTH 652 0
DWIDTH 18 0
BBX 16 15 1 3
BITMAP
0000200D
0000B07C
0007D1F4
001F47D0
007D2E00
02E0B800
0B47D000
7C1E0000
B41E0000
3E07D000
0BD1F900
01F92F80
002F92F8
0002D074
00004000
ENDCHAR
STARTCHAR logicalnot
ENCODING 172
SWIDTH 539 0
DWIDTH 15 0
BBX 12 8 2 3
BITMAP
AABFFE
A9555A
000006
000007
000007
000007
000007
000001
ENDCHAR
STARTCHAR uni00AD
ENCODING 173
SWIDTH 399 0
DWIDTH 11 0
BBX 11 4 0 5
BITMAP
0002F8
006FE4
1BE900
690000
ENDCHAR
STARTCHAR registered
ENCODING 174
SWIDTH 382 0
DWIDTH 11 0
BBX 14 19 0 0
BITMAP
00054000
007FF400
01FABC00
02400E00
06000740
0DD69380
1CF966C0
28D075C0
38D6D1D0
34EE01D0
70F802C0
70DB42C0
B0C1E780
B0C02F40
70801E00
74003C00
3C01F400
1FAF9000
0BF90000
ENDCHAR
STARTCHAR macron
ENCODING 175
SWIDTH 399 0
DWIDTH 11 0
BBX 11 3 0 18
BITMAP
005AA4
7FFEA4
140000
ENDCHAR
STARTCHAR degree
ENCODING 176
SWIDTH 201 0
DWIDTH 6 0
BBX 5 5 0 10
BITMAP
2F80
71C0
70C0
3B80
0400
ENDCHAR
STARTCHAR plusminus
ENCODING 177
SWIDTH 466 0
DWIDTH 13 0
BBX 11 14 0 2
BITMAP
001000
003000
003000
003000
003000
003014
003BF4
15B900
7EB400
107400
003400
003410
017FF8
2FA950
ENDCHAR
STARTCHAR twosuperior
ENCODING 178
SWIDTH 318 0
DWIDTH 9 0
BBX 8 9 0 4
BITMAP
0B80
2480
5080
0080
0080
0240
0201
0AA9
0940
ENDCHAR
STARTCHAR threesuperior
ENCODING 179
SWIDTH 280 0
DWIDTH 8 0
BBX 8 11 0 5
BITMAP
06C0
6490
4080
0200
0BA4
2909
0009
0008
0024
01D0
0200
ENDCHAR
STARTCHAR acute
ENCODING 180
SWIDTH 155 0
DWIDTH 4 0
BBX 4 4 0 16
BITMAP
0A
2D
78
10
ENDCHAR
STARTCHAR mu
ENCODING 181
SWIDTH 387 0
DWIDTH 11 0
BBX 10 19 0 -4
BITMAP
340180
3401C0
3401D0
3402D0
3402D0
3802D0
3802D0
3803D0
7807D0
780FD0
7C2FD0
7C7DD0
7FE090
764000
700000
700000
700000
700000
100000
ENDCHAR
STARTCHAR paragraph
ENCODING 182
SWIDTH 447 0
DWIDTH 13 0
BBX 12 18 0 0
BITMAP
016AE4
0BFFF8
2FFF98
3FFF58
7FFF5C
7FFB5C
2E835C
00039C
00039C
00039C
00029C
00029C
00029D
0002CD
0002CD
0002CD
0002C9
000144
ENDCHAR
STARTCHAR periodcentered
ENCODING 183
SWIDTH 128 0
DWIDTH 4 0
BBX 3 2 0 6
BITMAP
78
64
ENDCHAR
STARTCHAR cedilla
ENCODING 184
SWIDTH 322 0
DWIDTH 9 0
BBX 7 10 1 -9
BITMAP
3000
7400
7400
3E00
2FE0
01F8
003C
01BC
3FE4
1500
ENDCHAR
STARTCHAR onesuperior
ENCODING 185
SWIDTH 112 0
DWIDTH 3 0
BBX 1 10 1 4
BITMAP
40
C0
C0
C0
C0
C0
C0
C0
C0
80
ENDCHAR
STARTCHAR ordmasculine
ENCODING 186
SWIDTH 212 0
DWIDTH 6 0
BBX 6 8 0 4
BITMAP
1A00
2980
3090
60A0
A0A0
60D0
6280
3A00
ENDCHAR
STARTCHAR guillemotright
ENCODING 187
SWIDTH 625 0
DWIDTH 18 0
BBX 15 16 1 3
BITMAP
10180000
B81F4000
2F46F400
06F47E00
007E47E0
0007D0BC
0000B02C
0000A038
0002C0B0
000B43C0
003D1F00
01F4BC00
0BD2E000
2E0F8000
782D0000
50100000
ENDCHAR
STARTCHAR onequarter
ENCODING 188
SWIDTH 678 0
DWIDTH 19 0
BBX 17 23 1 -3
BITMAP
0005000000
000D000000
001C000000
0028000000
0034000000
C070000000
C0A0009000
C09002D000
C0D007D000
C1C00ED000
C2802CD000
C340B0D000
C701C0D000
CA0740E640
CD1E6AE540
9C7A50D000
280000D000
340000D000
300000D000
600000D000
900000D000
C000000000
4000000000
ENDCHAR
STARTCHAR onehalf
ENCODING 189
SWIDTH 693 0
DWIDTH 19 0
BBX 16 22 1 -2
BITMAP
00018000
00028000
00034000
00070000
400A0000
500D0000
500C0000
501C0000
50286800
5035EA00
607A0700
60A80700
60D00600
61C00900
62800C00
63401800
07003400
0600706E
0900EA90
0C019000
18000000
28000000
ENDCHAR
STARTCHAR threequarters
ENCODING 190
SWIDTH 868 0
DWIDTH 24 0
BBX 19 22 1 -2
BITMAP
0000000800
0010002800
06F8003400
7918003000
9024007600
00A000AB00
02C000DF00
07AA41EF00
1F41D2F700
140093E700
000097C700
0001CB4700
00074F07A4
002D1D6F50
00F03E4700
0180340700
0000300700
0000600700
0000A00700
0000D00700
0001C00600
0002800000
ENDCHAR
STARTCHAR questiondown
ENCODING 191
SWIDTH 541 0
DWIDTH 15 0
BBX 13 24 2 -2
BITMAP
000D0000
00050000
00000000
00000000
00000000
00000000
00000000
00000000
00000000
01FE4000
0147C000
0002C000
00078000
001F0000
007D0000
01E00000
07800000
1E000000
28000000
70000000
B0001B40
B401FE00
2FFF9000
01500000
ENDCHAR
STARTCHAR Agrave
ENCODING 192
SWIDTH 390 0
DWIDTH 11 0
BBX 13 26 1 -1
BITMAP
05000000
0B000000
07800000
01D00000
00400000
0A000000
0F400000
0F800000
0FC00000
1DD00000
1CA00000
1C700000
2C340000
2C280000
281C0000
380E0540
380BBF80
380B9000
746F4000
7FE78000
79028000
7001C000
A000D000
A000A000
A0006000
40003000
ENDCHAR
STARTCHAR Aacute
ENCODING 193
SWIDTH 390 0
DWIDTH 11 0
BBX 14 27 0 0
BITMAP
00400000
01C00000
07800000
0E000000
04000000
00000000
03400000
07800000
07D00000
0BE00000
0B700000
0A340000
0E280000
0E1C0000
0D0D0000
1D0A0000
1D070140
1D07AFD0
2C07E400
2C1FC000
2FE6C000
2E00D000
3800A000
34007000
34007000
74003400
10001400
ENDCHAR
STARTCHAR Acircumflex
ENCODING 194
SWIDTH 390 0
DWIDTH 11 0
BBX 15 29 -1 0
BITMAP
01D00000
03F00000
072C0000
0D0A0000
28038000
3401E000
A0006000
40000000
00D00000
01E00000
01F40000
02F80000
02DC0000
028D0000
038A0000
03870000
03434000
07428000
0741C050
0741EBF4
0B01F900
0B07F000
0BF9B000
0B803400
0E002800
0D001C00
0D001C00
1D000D00
04000500
ENDCHAR
STARTCHAR Atilde
ENCODING 195
SWIDTH 390 0
DWIDTH 11 0
BBX 15 28 -1 0
BITMAP
0BE01400
3DB43C00
743CB800
201FE000
00054000
00000000
00000000
00D00000
01E00000
01F40000
02F80000
02DC0000
028D0000
038A0000
03870000
03434000
07428000
0741C050
0741EBF4
0B01F900
0B07F000
0BF9B000
0B803400
0E002800
0D001C00
0D001C00
1D000D00
04000500
ENDCHAR
STARTCHAR Adieresis
ENCODING 196
SWIDTH 390 0
DWIDTH 11 0
BBX 14 25 0 0
BITMAP
1D2C0000
1D280000
00000000
00000000
03400000
07800000
07D00000
0BE00000
0B700000
0A340000
0E280000
0E1C0000
0D0D0000
1D0A0000
1D070140
1D07AFD0
2C07E400
2C1FC000
2FE6C000
2E00D000
3800A000
34007000
34007000
74003400
10001400
ENDCHAR
STARTCHAR Aring
ENCODING 197
SWIDTH 390 0
DWIDTH 11 0
BBX 14 25 0 0
BITMAP
1A900000
BAB40000
E0380000
B0740000
7FE00000
07800000
07D00000
0BE00000
0B700000
0A340000
0E280000
0E1C0000
0D0D0000
1D0A0000
1D070140
1D07AFD0
2C07E400
2C1FC000
2FE6C000
2E00D000
3800A000
34007000
34007000
74003400
10001400
ENDCHAR
STARTCHAR AE
ENCODING 198
SWIDTH 708 0
DWIDTH 20 0
BBX 20 21 0 0
BITMAP
0340000050
0781D01B90
07D1E2F900
0BE0FF9000
0B70F90000
0A34A00000
0E28A00000
0E1CA00040
0D0DA00280
1D0A702D00
1D07B2E000
1D07FE4000
2C07F80000
2C1FF40000
2FE6F4002D
2E00F401F4
3800B40780
3400746D00
34007AE000
74007F4000
1000140000
ENDCHAR
STARTCHAR Ccedilla
ENCODING 199
SWIDTH 487 0
DWIDTH 14 0
BBX 13 30 0 -9
BITMAP
00050000
002FD000
00B4B000
01D01000
02800000
03400000
07000000
0A000000
0D000000
1C000000
28000000
28000000
34000000
340002C0
70000380
70000B00
70001D00
34007400
2801D000
1E5F4000
07F80000
00A00000
00A00000
00B40000
00BE4000
001BE000
0001F400
0000B800
006BF400
00BE4000
ENDCHAR
STARTCHAR Egrave
ENCODING 200
SWIDTH 474 0
DWIDTH 13 0
BBX 12 26 1 0
BITMAP
010000
074000
03C000
00D000
004000
000010
901BD0
F1BD00
BBD000
BE0000
700000
700000
700000
7001D0
341B40
34B800
3B8000
3D0000
380000
38001A
3800B8
3806D0
382E00
3EF400
3F8000
280000
ENDCHAR
STARTCHAR Eacute
ENCODING 201
SWIDTH 474 0
DWIDTH 13 0
BBX 12 25 1 0
BITMAP
000400
001D00
007800
00E000
004010
901BD0
F1BD00
BBD000
BE0000
700000
700000
700000
7001D0
341B40
34B800
3B8000
3D0000
380000
38001A
3800B8
3806D0
382E00
3EF400
3F8000
280000
ENDCHAR
STARTCHAR Ecircumflex
ENCODING 202
SWIDTH 474 0
DWIDTH 13 0
BBX 12 29 1 0
BITMAP
007400
00FC00
02CA00
034280
0A00E0
1D0078
280014
100000
000010
901BD0
F1BD00
BBD000
BE0000
700000
700000
700000
7001D0
341B40
34B800
3B8000
3D0000
380000
38001A
3800B8
3806D0
382E00
3EF400
3F8000
280000
ENDCHAR
STARTCHAR Edieresis
ENCODING 203
SWIDTH 474 0
DWIDTH 13 0
BBX 12 25 1 0
BITMAP
074A00
060A00
000000
000000
000010
901BD0
F1BD00
BBD000
BE0000
700000
700000
700000
7001D0
341B40
34B800
3B8000
3D0000
380000
38001A
3800B8
3806D0
382E00
3EF400
3F8000
280000
ENDCHAR
STARTCHAR Igrave
ENCODING 204
SWIDTH 153 0
DWIDTH 4 0
BBX 4 27 0 0
BITMAP
50
74
3C
1D
04
00
18
1C
1C
1C
1D
0D
0D
0D
0D
0D
0D
0D
0D
0D
0D
0D
0D
0D
0D
0A
09
ENDCHAR
STARTCHAR Iacute
ENCODING 205
SWIDTH 153 0
DWIDTH 4 0
BBX 4 27 1 0
BITMAP
04
1D
78
F0
40
00
60
70
70
70
74
34
34
34
34
34
34
34
34
34
34
34
34
34
34
28
24
ENDCHAR
STARTCHAR Icircumflex
ENCODING 206
SWIDTH 153 0
DWIDTH 4 0
BBX 10 29 -2 0
BITMAP
02C000
07E000
0A2800
1C0D00
380740
7001D0
D00090
400000
018000
01C000
01C000
01C000
01D000
00D000
00D000
00D000
00D000
00D000
00D000
00D000
00D000
00D000
00D000
00D000
00D000
00D000
00D000
00A000
009000
ENDCHAR
STARTCHAR Idieresis
ENCODING 207
SWIDTH 153 0
DWIDTH 4 0
BBX 7 25 -1 0
BITMAP
2874
74A0
0000
0000
0600
0700
0700
0700
0740
0340
0340
0340
0340
0340
0340
0340
0340
0340
0340
0340
0340
0340
0340
0280
0240
ENDCHAR
STARTCHAR Eth
ENCODING 208
SWIDTH 554 0
DWIDTH 16 0
BBX 15 21 0 0
BITMAP
02000000
03540000
0BFFF900
2F805BD0
6B4000B4
07400028
0340001C
03400028
03400024
03400070
034000A0
028001C0
02800740
02990E00
6BFE2C00
6BE4B400
0182D000
018B8000
019E0000
00780000
00600000
ENDCHAR
STARTCHAR Ntilde
ENCODING 209
SWIDTH 541 0
DWIDTH 15 0
BBX 13 26 1 0
BITMAP
1BD01400
79F07800
B075F000
502FD000
00050400
00000E00
00000B00
00000B00
D0000700
F4000700
FC000700
FE000700
BB800740
B2D00740
B0B00340
70380340
701E0340
74074340
3402C340
3400E740
38003B40
28001F80
2C000BC0
2C0003C0
1C000240
18000000
ENDCHAR
STARTCHAR Ograve
ENCODING 210
SWIDTH 382 0
DWIDTH 11 0
BBX 11 25 0 0
BITMAP
000800
000E00
000B40
000280
000040
000000
002A00
01FF80
03D1E0
0700B0
0E0070
1D0074
2C0074
280074
380074
740074
7000B0
7000B0
B000E0
B001D0
7002C0
740740
381E00
1FF800
0BE000
ENDCHAR
STARTCHAR Oacute
ENCODING 211
SWIDTH 382 0
DWIDTH 11 0
BBX 11 24 0 0
BITMAP
002800
00B400
01D000
014000
000000
002A00
01FF80
03D1E0
0700B0
0E0070
1D0074
2C0074
280074
380074
740074
7000B0
7000B0
B000E0
B001D0
7002C0
740740
381E00
1FF800
0BE000
ENDCHAR
STARTCHAR Ocircumflex
ENCODING 212
SWIDTH 382 0
DWIDTH 11 0
BBX 11 26 0 0
BITMAP
00E000
02F400
035D00
0A0740
1D02C0
2800B0
700020
102A00
01FF80
03D1E0
0700B0
0E0070
1D0074
2C0074
280074
380074
740074
7000B0
7000B0
B000E0
B001D0
7002C0
740740
381E00
1FF800
0BE000
ENDCHAR
STARTCHAR Otilde
ENCODING 213
SWIDTH 382 0
DWIDTH 11 0
BBX 12 25 0 0
BITMAP
06F405
1E6C1E
2C1E7D
140BF4
000140
000000
002A00
01FF80
03D1E0
0700B0
0E0070
1D0074
2C0074
280074
380074
740074
7000B0
7000B0
B000E0
B001D0
7002C0
740740
381E00
1FF800
0BE000
ENDCHAR
STARTCHAR Odieresis
ENCODING 214
SWIDTH 382 0
DWIDTH 11 0
BBX 11 23 0 0
BITMAP
00B0A0
00A1D0
000000
000000
002A00
01FF80
03D1E0
0700B0
0E0070
1D0074
2C0074
280074
380074
740074
7000B0
7000B0
B000E0
B001D0
7002C0
740740
381E00
1FF800
0BE000
ENDCHAR
STARTCHAR multiply
ENCODING 215
SWIDTH 454 0
DWIDTH 13 0
BBX 8 10 2 3
BITMAP
A005
341D
1C38
0BE0
07C0
0BD0
2CA0
B034
902C
0004
ENDCHAR
STARTCHAR Oslash
ENCODING 216
SWIDTH 382 0
DWIDTH 11 0
BBX 11 22 0 -2
BITMAP
000080
002AC0
01FFC0
03D3E0
0707B0
0E0A70
1D0D74
2C1C74
282874
383474
747074
70A0B0
7090B0
B0C0E0
B1C1D0
7282C0
774740
3F1E00
1FF800
0FE000
1C0000
180000
ENDCHAR
STARTCHAR Ugrave
ENCODING 217
SWIDTH 450 0
DWIDTH 13 0
BBX 11 26 1 -3
BITMAP
014000
02C000
01E000
007000
001000
000010
900038
E00038
E00078
E00078
E000B8
E000B8
E000F4
E000F4
E001F4
E002F4
E002B4
E00374
A00B28
A00D28
742C28
3EF01C
0A401C
00001C
00001C
00000C
ENDCHAR
STARTCHAR Uacute
ENCODING 218
SWIDTH 450 0
DWIDTH 13 0
BBX 11 23 1 -3
BITMAP
001D00
003C00
00B410
905038
E00038
E00078
E00078
E000B8
E000B8
E000F4
E000F4
E001F4
E002F4
E002B4
E00374
A00B28
A00D28
742C28
3EF01C
0A401C
00001C
00001C
00000C
ENDCHAR
STARTCHAR Ucircumflex
ENCODING 219
SWIDTH 450 0
DWIDTH 13 0
BBX 11 29 1 -3
BITMAP
01D000
02F400
075D00
0A0B00
1C0280
3400F0
700060
500000
000010
900038
E00038
E00078
E00078
E000B8
E000B8
E000F4
E000F4
E001F4
E002F4
E002B4
E00374
A00B28
A00D28
742C28
3EF01C
0A401C
00001C
00001C
00000C
ENDCHAR
STARTCHAR Udieresis
ENCODING 220
SWIDTH 450 0
DWIDTH 13 0
BBX 11 24 1 -3
BITMAP
064700
074A00
000000
000010
900038
E00038
E00078
E00078
E000B8
E000B8
E000F4
E000F4
E001F4
E002F4
E002B4
E00374
A00B28
A00D28
742C28
3EF01C
0A401C
00001C
00001C
00000C
ENDCHAR
STARTCHAR Yacute
ENCODING 221
SWIDTH 483 0
DWIDTH 14 0
BBX 13 26 0 0
BITMAP
0001D000
0007C000
000B4000
00040000
00000080
000001C0
00000280
00000340
50000700
74000A00
2C000D00
1E001C00
07802C00
02D03800
00B47400
003DB000
000FD000
0007C000
00038000
00074000
00070000
000A0000
000D0000
001C0000
00280000
00240000
ENDCHAR
STARTCHAR Thorn
ENCODING 222
SWIDTH 398 0
DWIDTH 11 0
BBX 10 23 1 0
BITMAP
600000
B00000
A00000
A00000
A00400
A1BF40
E7EBC0
FE01D0
F800E0
F400E0
E000D0
E001D0
E00780
D01E00
D07800
D7D000
FE0000
E40000
D00000
D00000
E00000
E00000
400000
ENDCHAR
STARTCHAR germandbls
ENCODING 223
SWIDTH 537 0
DWIDTH 15 0
BBX 15 21 0 0
BITMAP
00005000
001BF800
61F92C00
7B802800
3D007000
2C00D000
2C038000
1C0A1A90
1C2EE5B4
0DBD0034
0FF00070
0FC000D0
0B400280
0B000A00
07002C00
0700B400
0342D000
034B4000
025D0000
02800000
01400000
ENDCHAR
STARTCHAR agrave
ENCODING 224
SWIDTH 366 0
DWIDTH 10 0
BBX 10 21 0 0
BITMAP
010000
028000
01E000
00B000
001000
000000
002F40
00BF80
01E380
03C380
0B4780
0E0B80
2D0F80
382EC0
7439C0
B0B0D0
A1E0D0
D3C0D0
AF40A0
BD00A0
240050
ENDCHAR
STARTCHAR aacute
ENCODING 225
SWIDTH 366 0
DWIDTH 10 0
BBX 10 20 0 0
BITMAP
001D00
007C00
00F000
004000
000000
002F40
00BF80
01E380
03C380
0B4780
0E0B80
2D0F80
382EC0
7439C0
B0B0D0
A1E0D0
D3C0D0
AF40A0
BD00A0
240050
ENDCHAR
STARTCHAR acircumflex
ENCODING 226
SWIDTH 366 0
DWIDTH 10 0
BBX 10 26 0 0
BITMAP
01D000
02F400
071C00
0E0B00
1C0280
3400E0
600060
400000
000000
000000
000000
002F40
00BF80
01E380
03C380
0B4780
0E0B80
2D0F80
382EC0
7439C0
B0B0D0
A1E0D0
D3C0D0
AF40A0
BD00A0
240050
ENDCHAR
STARTCHAR atilde
ENCODING 227
SWIDTH 366 0
DWIDTH 10 0
BBX 11 21 0 0
BITMAP
0BE018
2DB43C
743DB8
201FE0
000140
000000
002F40
00BF80
01E380
03C380
0B4780
0E0B80
2D0F80
382EC0
7439C0
B0B0D0
A1E0D0
D3C0D0
AF40A0
BD00A0
240050
ENDCHAR
STARTCHAR adieresis
ENCODING 228
SWIDTH 366 0
DWIDTH 10 0
BBX 10 21 0 0
BITMAP
074A00
060A00
000000
000000
000000
000000
002F40
00BF80
01E380
03C380
0B4780
0E0B80
2D0F80
382EC0
7439C0
B0B0D0
A1E0D0
D3C0D0
AF40A0
BD00A0
240050
ENDCHAR
STARTCHAR aring
ENCODING 229
SWIDTH 366 0
DWIDTH 10 0
BBX 10 19 0 0
BITMAP
01BE00
079780
0B02C0
079780
01BF40
00BF80
02E380
03C380
0B4780
0E0B80
2D0F80
382EC0
7439C0
B0B0D0
A1E0D0
D3C0D0
AF40A0
BD00A0
240050
ENDCHAR
STARTCHAR ae
ENCODING 230
SWIDTH 705 0
DWIDTH 20 0
BBX 20 16 0 0
BITMAP
0000006800
002F47FF40
00BF8B43C0
01E39E07C0
03C3AC1E00
0B47F9F400
0E0BFF8000
2D0FF80000
382FF0001D
7439F00078
B0B0E000F4
A1E0E002D0
D3C0F00B40
AF40B97D00
BD00AFD000
2400500000
ENDCHAR
STARTCHAR ccedilla
ENCODING 231
SWIDTH 390 0
DWIDTH 11 0
BBX 10 26 0 -9
BITMAP
005000
03F800
0B6800
1E2C00
1D0C00
2C0400
380000
340000
340000
700000
700020
700070
3000E0
3401D0
2C02C0
0E5F40
07F800
034000
034000
03E000
01FE00
001F80
0003D0
001BD0
02FF80
015400
ENDCHAR
STARTCHAR egrave
ENCODING 232
SWIDTH 461 0
DWIDTH 13 0
BBX 13 21 0 0
BITMAP
00500000
00740000
003C0000
001D0000
00040000
00000000
006A4000
01FBD000
03D0F000
0741E000
0F0B8000
1EBD0000
2FD00000
7E000100
FC000B40
2C001E00
1C003C00
1C00B400
1C02D000
0E6E0000
07F40000
ENDCHAR
STARTCHAR eacute
ENCODING 233
SWIDTH 461 0
DWIDTH 13 0
BBX 13 20 0 0
BITMAP
00028000
000F4000
002D0000
00140000
00000000
006A4000
01FBD000
03D0F000
0741E000
0F0B8000
1EBD0000
2FD00000
7E000100
FC000B40
2C001E00
1C003C00
1C00B400
1C02D000
0E6E0000
07F40000
ENDCHAR
STARTCHAR ecircumflex
ENCODING 234
SWIDTH 461 0
DWIDTH 13 0
BBX 13 26 0 0
BITMAP
00380000
00BD0000
00D74000
0281D000
0340B000
0A002D00
1C000800
04000000
00000000
00000000
00000000
006A4000
01FBD000
03D0F000
0741E000
0F0B8000
1EBD0000
2FD00000
7E000100
FC000B40
2C001E00
1C003C00
1C00B400
1C02D000
0E6E0000
07F40000
ENDCHAR
STARTCHAR edieresis
ENCODING 235
SWIDTH 461 0
DWIDTH 13 0
BBX 13 21 0 0
BITMAP
00A1D000
00D18000
00000000
00000000
00000000
00000000
006A4000
01FBD000
03D0F000
0741E000
0F0B8000
1EBD0000
2FD00000
7E000100
FC000B40
2C001E00
1C003C00
1C00B400
1C02D000
0E6E0000
07F40000
ENDCHAR
STARTCHAR igrave
ENCODING 236
SWIDTH 132 0
DWIDTH 4 0
BBX 3 23 0 0
BITMAP
80
E0
B4
28
00
00
00
24
38
38
38
38
38
38
38
34
34
34
34
34
34
38
38
ENDCHAR
STARTCHAR iacute
ENCODING 237
SWIDTH 132 0
DWIDTH 4 0
BBX 3 24 1 0
BITMAP
04
2C
B4
D0
00
00
00
00
90
E0
E0
E0
E0
E0
E0
E0
D0
D0
D0
D0
D0
D0
E0
E0
ENDCHAR
STARTCHAR icircumflex
ENCODING 238
SWIDTH 132 0
DWIDTH 4 0
BBX 10 26 -3 0
BITMAP
02C000
03F000
0A2800
1D0E00
280740
7001E0
900090
400000
000000
000000
009000
00E000
00E000
00E000
00E000
00E000
00E000
00E000
00D000
00D000
00D000
00D000
00D000
00D000
00E000
00E000
ENDCHAR
STARTCHAR idieresis
ENCODING 239
SWIDTH 132 0
DWIDTH 4 0
BBX 6 21 -1 0
BITMAP
B0A0
A0D0
0000
0000
0000
0900
0E00
0E00
0E00
0E00
0E00
0E00
0E00
0D00
0D00
0D00
0D00
0D00
0D00
0E00
0E00
ENDCHAR
STARTCHAR eth
ENCODING 240
SWIDTH 481 0
DWIDTH 13 0
BBX 11 18 2 -1
BITMAP
038000
01D000
00E000
007400
007AAC
1FFF94
054E00
000700
190340
7FD380
F6F680
D03E80
C00F40
D00F00
A01E00
39B800
1FD000
010000
ENDCHAR
STARTCHAR ntilde
ENCODING 241
SWIDTH 483 0
DWIDTH 14 0
BBX 12 23 1 0
BITMAP
0BE405
2D782D
382D78
200FE0
000140
000000
000040
C00BE0
D02FF0
D07838
E0B428
E0E01C
E1D01C
B2C01D
B3801D
B7401D
BB001D
BE000D
7D000D
7D000D
7C000D
7C000D
340004
ENDCHAR
STARTCHAR ograve
ENCODING 242
SWIDTH 266 0
DWIDTH 7 0
BBX 7 21 0 0
BITMAP
0400
1D00
0B40
0380
0040
0100
0FD0
1EA0
2824
3428
341C
701C
701C
702C
702C
7028
7034
7070
74E0
3FC0
2E00
ENDCHAR
STARTCHAR oacute
ENCODING 243
SWIDTH 266 0
DWIDTH 7 0
BBX 7 21 0 0
BITMAP
0010
00B0
02E0
0780
0100
0100
0FD0
1EA0
2824
3428
341C
701C
701C
702C
702C
7028
7034
7070
74E0
3FC0
2E00
ENDCHAR
STARTCHAR ocircumflex
ENCODING 244
SWIDTH 266 0
DWIDTH 7 0
BBX 10 26 -1 0
BITMAP
02C000
07E000
0A2800
1C0E00
280740
7001D0
D00090
400000
000000
000000
004000
03F400
07A800
0A0900
0D0A00
0D0700
1C0700
1C0700
1C0B00
1C0B00
1C0A00
1C0D00
1C1C00
1D3800
0FF000
0B8000
ENDCHAR
STARTCHAR otilde
ENCODING 245
SWIDTH 266 0
DWIDTH 7 0
BBX 11 21 -1 0
BITMAP
1BD014
79F078
B079F0
502FD0
000500
004000
03F400
07A800
0A0900
0D0A00
0D0700
1C0700
1C0700
1C0B00
1C0B00
1C0A00
1C0D00
1C1C00
1D3800
0FF000
0B8000
ENDCHAR
STARTCHAR odieresis
ENCODING 246
SWIDTH 266 0
DWIDTH 7 0
BBX 7 21 0 0
BITMAP
2828
2874
0000
0000
0000
0100
0FD0
1EA0
2824
3428
341C
701C
701C
702C
702C
7028
7034
7070
74E0
3FC0
2E00
ENDCHAR
STARTCHAR divide
ENCODING 247
SWIDTH 345 0
DWIDTH 10 0
BBX 8 9 1 3
BITMAP
0300
0200
0000
6AFF
AA95
0000
0000
0240
0240
ENDCHAR
STARTCHAR oslash
ENCODING 248
SWIDTH 266 0
DWIDTH 7 0
BBX 8 19 0 -2
BITMAP
0004
010D
0FEC
1EB8
2834
3478
34FC
71DC
729C
736C
772C
7A28
7D34
7C70
78E0
7FC0
7E00
9000
C000
ENDCHAR
STARTCHAR ugrave
ENCODING 249
SWIDTH 387 0
DWIDTH 11 0
BBX 9 22 1 -1
BITMAP
050000
074000
03C000
01D000
004000
000000
000000
800500
D00700
D00700
D00B00
D00B00
E00B00
E00B00
E00B00
E01F00
A02F00
B07F40
70F740
3BD380
1F4280
000140
ENDCHAR
STARTCHAR uacute
ENCODING 250
SWIDTH 387 0
DWIDTH 11 0
BBX 9 21 1 -1
BITMAP
003800
00F400
02D000
014000
000000
000000
800500
D00700
D00700
D00B00
D00B00
E00B00
E00B00
E00B00
E01F00
A02F00
B07F40
70F740
3BD380
1F4280
000140
ENDCHAR
STARTCHAR ucircumflex
ENCODING 251
SWIDTH 387 0
DWIDTH 11 0
BBX 11 27 0 -1
BITMAP
00E000
02F800
035D00
0A0740
0D02C0
2800B4
700020
100000
000000
000000
000000
000000
200140
3401C0
3401C0
3402C0
3402C0
3802C0
3802C0
3802C0
3807C0
280BC0
2C1FD0
1C3DD0
0EF4E0
07D0A0
000050
ENDCHAR
STARTCHAR udieresis
ENCODING 252
SWIDTH 387 0
DWIDTH 11 0
BBX 9 22 1 -1
BITMAP
0A1D00
1D2800
000000
000000
000000
000000
000000
800500
D00700
D00700
D00B00
D00B00
E00B00
E00B00
E00B00
E01F00
A02F00
B07F40
70F740
3BD380
1F4280
000140
ENDCHAR
STARTCHAR yacute
ENCODING 253
SWIDTH 363 0
DWIDTH 10 0
BBX 10 31 0 -11
BITMAP
001D00
007C00
00F000
004000
000000
000050
0000A0
6000A0
7800A0
2D00E0
0E00E0
0B40E0
03C0D0
01E0D0
00B4D0
003DD0
001FD0
000BD0
0003D0
0002D0
0001C0
0001C0
0001C0
0002C0
000280
000280
000280
000380
000340
000340
000140
ENDCHAR
STARTCHAR thorn
ENCODING 254
SWIDTH 439 0
DWIDTH 12 0
BBX 11 20 1 -1
BITMAP
400000
D00000
D06F90
D2E578
EE0028
F80034
E000A0
D001D0
D00740
902D00
A1F400
ABD000
BE0000
B40000
A00000
A00000
900000
D00000
D00000
900000
ENDCHAR
STARTCHAR ydieresis
ENCODING 255
SWIDTH 363 0
DWIDTH 10 0
BBX 10 32 0 -11
BITMAP
074A00
060A00
000000
000000
000000
000000
000050
0000A0
6000A0
7800A0
2D00E0
0E00E0
0B40E0
03C0D0
01E0D0
00B4D0
003DD0
001FD0
000BD0
0003D0
0002D0
0001C0
0001C0
0001C0
0002C0
000280
000280
000280
000380
000340
000340
000140
ENDCHAR
STARTCHAR Amacron
ENCODING 256
SWIDTH 390 0
DWIDTH 11 0
BBX 14 25 0 0
BITMAP
015AA000
BFFEA000
50000000
00000000
03400000
07800000
07D00000
0BE00000
0B700000
0A340000
0E280000
0E1C0000
0D0D0000
1D0A0000
1D070140
1D07AFD0
2C07E400
2C1FC000
2FE6C000
2E00D000
3800A000
34007000
34007000
74003400
10001400
ENDCHAR
STARTCHAR amacron
ENCODING 257
SWIDTH 366 0
DWIDTH 10 0
BBX 10 21 0 0
BITMAP
005AA0
BFFEA0
140000
000000
000000
000000
002F40
00BF80
01E380
03C380
0B4780
0E0B80
2D0F80
382EC0
7439C0
B0B0D0
A1E0D0
D3C0D0
AF40A0
BD00A0
240050
ENDCHAR
STARTCHAR Abreve
ENCODING 258
SWIDTH 390 0
DWIDTH 11 0
BBX 14 27 0 0
BITMAP
04020000
1C0B4000
0BAE0000
02F80000
00400000
00000000
03400000
07800000
07D00000
0BE00000
0B700000
0A340000
0E280000
0E1C0000
0D0D0000
1D0A0000
1D070140
1D07AFD0
2C07E400
2C1FC000
2FE6C000
2E00D000
3800A000
34007000
34007000
74003400
10001400
ENDCHAR
STARTCHAR abreve
ENCODING 259
SWIDTH 366 0
DWIDTH 10 0
BBX 10 21 0 0
BITMAP
040180
0E0380
07AF40
01FD00
001000
000000
002F40
00BF80
01E380
03C380
0B4780
0E0B80
2D0F80
382EC0
7439C0
B0B0D0
A1E0D0
D3C0D0
AF40A0
BD00A0
240050
ENDCHAR
STARTCHAR Aogonek
ENCODING 260
SWIDTH 390 0
DWIDTH 11 0
BBX 14 28 0 -7
BITMAP
03400000
07800000
07D00000
0BE00000
0B700000
0A340000
0E280000
0E1C0000
0D0D0000
1D0A0000
1D070140
1D07AFD0
2C07E400
2C1FC000
2FE6C000
2E00D000
3800A000
34007000
34007000
74003400
10002400
0000B400
0002D000
00038000
00034000
00038190
0002EFD0
0000AA40
ENDCHAR
STARTCHAR aogonek
ENCODING 261
SWIDTH 366 0
DWIDTH 10 0
BBX 13 21 0 -6
BITMAP
002F4000
00BF8000
01E38000
03C38000
0B478000
0E0B8000
2D0F8000
382EC000
7439C000
B0B0D000
A1E0D000
D3C0D000
AF40A000
BD00A000
2402D000
000B4000
000E0000
000D0000
000E0640
000BBF40
0001A900
ENDCHAR
STARTCHAR Cacute
ENCODING 262
SWIDTH 487 0
DWIDTH 14 0
BBX 13 24 0 0
BITMAP
00038000
000F4000
002D0000
00150000
002FD000
00B4B000
01D01000
02800000
03400000
07000000
0A000000
0D000000
1C000000
28000000
28000000
34000000
340002C0
70000380
70000B00
70001D00
34007400
2801D000
1E5F4000
07F80000
ENDCHAR
STARTCHAR cacute
ENCODING 263
SWIDTH 390 0
DWIDTH 11 0
BBX 10 23 0 0
BITMAP
000400
002C00
00B800
01E000
004000
000000
005000
03F800
0B6800
1E2C00
1D0C00
2C0400
380000
340000
340000
700000
700020
700070
3000E0
3401D0
2C02C0
0E5F40
06F800
ENDCHAR
STARTCHAR Ccircumflex
ENCODING 264
SWIDTH 487 0
DWIDTH 14 0
BBX 13 28 0 0
BITMAP
00280000
007E0000
00A38000
01C0D000
03407400
07002D00
0D000900
04050000
002FD000
00B4B000
01D01000
02800000
03400000
07000000
0A000000
0D000000
1C000000
28000000
28000000
34000000
340002C0
70000380
70000B00
70001D00
34007400
2801D000
1E5F4000
07F80000
ENDCHAR
STARTCHAR ccircumflex
ENCODING 265
SWIDTH 390 0
DWIDTH 11 0
BBX 11 26 0 0
BITMAP
00E000
01F800
034D00
0B0740
0D02C0
2800B4
300020
100000
000000
005000
03F800
0B6800
1E2C00
1D0C00
2C0400
380000
340000
340000
700000
700020
700070
3000E0
3401D0
2C02C0
0E5F40
06F800
ENDCHAR
STARTCHAR Cdotaccent
ENCODING 266
SWIDTH 487 0
DWIDTH 14 0
BBX 13 24 0 0
BITMAP
001E0000
00190000
00000000
00050000
002FD000
00B4B000
01D01000
02800000
03400000
07000000
0A000000
0D000000
1C000000
28000000
28000000
34000000
340002C0
70000380
70000B00
70001D00
34007400
2801D000
1E5F4000
07F80000
ENDCHAR
STARTCHAR cdotaccent
ENCODING 267
SWIDTH 390 0
DWIDTH 11 0
BBX 10 19 0 0
BITMAP
01C000
014000
005000
07F400
0B2800
1E2C00
2C1C00
280400
380000
340000
740000
700000
700020
7000B0
7000E0
3401D0
2802C0
1E5F00
07F800
ENDCHAR
STARTCHAR Ccaron
ENCODING 268
SWIDTH 487 0
DWIDTH 14 0
BBX 13 27 0 0
BITMAP
04000000
07000D00
02807400
00A1D000
003B4000
00180000
00050000
002FD000
00B4B000
01D01000
02800000
03400000
07000000
0A000000
0D000000
1C000000
28000000
28000000
34000000
340002C0
70000380
70000B00
70001D00
34007400
2801D000
1E5F4000
07F80000
ENDCHAR
STARTCHAR ccaron
ENCODING 269
SWIDTH 390 0
DWIDTH 11 0
BBX 10 23 0 0
BITMAP
100000
280070
0D01D0
074A00
01E800
009000
005000
03F800
0B6800
1E2C00
1D0C00
2C0400
380000
340000
340000
700000
700020
700070
3000E0
3401D0
2C02C0
0E5F40
06F800
ENDCHAR
STARTCHAR Dcaron
ENCODING 270
SWIDTH 554 0
DWIDTH 16 0
BBX 15 27 0 0
BITMAP
00400000
00D00280
00700A00
00282800
000AD000
00024000
02000000
03540000
0BFFF900
2F805BD0
6B4000B4
07400028
0340001C
03400028
03400024
03400070
038000A0
028001C0
02800740
02800E00
02802C00
0180B400
0182D000
018B8000
019E0000
00780000
00600000
ENDCHAR
STARTCHAR Emacron
ENCODING 274
SWIDTH 474 0
DWIDTH 13 0
BBX 12 24 1 0
BITMAP
015AA0
FFFEA0
500000
000010
901BD0
F1BD00
BBD000
BE0000
700000
700000
700000
7001D0
341B40
34B800
3B8000
3D0000
380000
38001A
3800B8
3806D0
382E00
3EF400
3F8000
280000
ENDCHAR
STARTCHAR emacron
ENCODING 275
SWIDTH 461 0
DWIDTH 13 0
BBX 13 21 0 0
BITMAP
0016A900
1FFFA900
05000000
00000000
00000000
00000000
006A4000
01FBD000
03D0F000
0741E000
0F0B8000
1EBD0000
2FD00000
7E000100
FC000B40
2C001E00
1C003C00
1C00B400
1C02D000
0E6E0000
07F40000
ENDCHAR
STARTCHAR Ebreve
ENCODING 276
SWIDTH 474 0
DWIDTH 13 0
BBX 12 26 1 0
BITMAP
000080
0B02C0
02EB80
00BE00
001000
000010
901BD0
F1BD00
BBD000
BE0000
700000
700000
700000
7001D0
341B40
34B800
3B8000
3D0000
380000
38001A
3800B8
3806D0
382E00
3EF400
3F8000
280000
ENDCHAR
STARTCHAR ebreve
ENCODING 277
SWIDTH 461 0
DWIDTH 13 0
BBX 13 21 0 0
BITMAP
00002000
02C0B000
00BAE000
002F8000
00040000
00000000
006A4000
01FBD000
03D0F000
0741E000
0F0B8000
1EBD0000
2FD00000
7E000100
FC000B40
2C001E00
1C003C00
1C00B400
1C02D000
0E6E0000
07F40000
ENDCHAR
STARTCHAR Edotaccent
ENCODING 278
SWIDTH 474 0
DWIDTH 13 0
BBX 12 22 1 0
BITMAP
01D000
018010
901BD0
F1BD00
BBD000
BE0000
700000
700000
700000
7001D0
341B40
34B800
3B8000
3D0000
380000
38001A
3800B8
3806D0
382E00
3EF400
3F8000
280000
ENDCHAR
STARTCHAR edotaccent
ENCODING 279
SWIDTH 461 0
DWIDTH 13 0
BBX 13 17 0 0
BITMAP
001E0000
00180000
006A4000
01FBD000
03D0F000
0741E000
0F0B8000
1EBD0000
2FD00000
7E000100
FC000B40
2C001E00
1C003C00
1C00B400
1C02D000
0E6E0000
07F40000
ENDCHAR
STARTCHAR Eogonek
ENCODING 280
SWIDTH 474 0
DWIDTH 13 0
BBX 12 24 1 -3
BITMAP
000010
901BD0
F1BD00
BBD000
BE0000
700000
700000
700000
7001D0
341B40
34B800
3B8000
3D0000
380000
38001A
3800B8
3806D0
381E00
3EFC00
3FB400
287400
003418
002FFC
000690
ENDCHAR
STARTCHAR eogonek
ENCODING 281
SWIDTH 461 0
DWIDTH 13 0
BBX 13 21 0 -6
BITMAP
006A4000
01FBD000
03D0F000
0741E000
0F0B8000
1EBD0000
2FD00000
7E000100
FC000B40
2C001E00
1C003C00
1C00B400
1C02D000
0E6E0000
07F80000
00E00000
01D00000
01C00000
01D0A000
00BFE000
001A4000
ENDCHAR
STARTCHAR Ecaron
ENCODING 282
SWIDTH 474 0
DWIDTH 13 0
BBX 12 26 1 0
BITMAP
100000
3400A0
1C0280
0A0A00
02B400
009010
901BD0
F1BD00
BBD000
BE0000
700000
700000
700000
7001D0
341B40
34B800
3B8000
3D0000
380000
38001A
3800B8
3806D0
382E00
3EF400
3F8000
280000
ENDCHAR
STARTCHAR ecaron
ENCODING 283
SWIDTH 461 0
DWIDTH 13 0
BBX 13 23 0 0
BITMAP
04000000
09001C00
0340B400
01C28000
00BA0000
00240000
00000000
00000000
006A4000
01FBD000
03D0F000
0741E000
0F0B8000
1EBD0000
2FD00000
7E000100
FC000B40
2C001E00
1C003C00
1C00B400
1C02D000
0E6E0000
07F40000
ENDCHAR
STARTCHAR Gcircumflex
ENCODING 284
SWIDTH 591 0
DWIDTH 17 0
BBX 16 29 0 -3
BITMAP
00074000
000BD000
001D7400
00282C00
00700A00
00D003C0
01C00180
01400400
0000BE00
0007E400
001D0000
00380000
00A00000
01D00000
03800005
070006FE
0E007FF8
1C0000B4
280000F4
340002F0
740007F0
70001FB0
700078A0
7906E0B0
1FFF40B0
02A400B0
000000B0
000000B0
00000070
ENDCHAR
STARTCHAR gcircumflex
ENCODING 285
SWIDTH 437 0
DWIDTH 12 0
BBX 12 38 0 -12
BITMAP
007400
00FD00
01CB00
034280
0700E0
0D0038
280018
100000
000000
000000
000140
001FF0
0079F4
01D0F4
0382F8
0B03B8
0D0778
2C0E38
381D3C
74383C
70743C
B0E03C
7BC02C
3F402D
04002D
00002D
00002D
00002D
00002C
00003C
000038
000074
0000B0
0000E0
0002C0
000B40
05BE00
06E400
ENDCHAR
STARTCHAR Gbreve
ENCODING 286
SWIDTH 591 0
DWIDTH 17 0
BBX 16 26 0 -3
BITMAP
00040140
001D0740
000BAE00
0002F800
00001400
0000BE00
0007E400
001D0000
00380000
00A00000
01D00000
03800005
070006FE
0E007FF8
1C0000B4
280000F4
340002F0
740007F0
70001FB0
700078A0
7906E0B0
1FFF40B0
02A400B0
000000B0
000000B0
00000070
ENDCHAR
STARTCHAR gbreve
ENCODING 287
SWIDTH 437 0
DWIDTH 12 0
BBX 12 35 0 -12
BITMAP
010060
0380E0
01EBD0
007F40
000400
000000
000000
000140
001FF0
0079F4
01D0F4
0382F8
0B03B8
0D0778
2C0E38
381D3C
74383C
70743C
B0E03C
7BC02C
3F402D
04002D
00002D
00002D
00002D
00002C
00003C
000038
000074
0000B0
0000E0
0002C0
000B40
05BE00
06E400
ENDCHAR
STARTCHAR Gdotaccent
ENCODING 288
SWIDTH 591 0
DWIDTH 17 0
BBX 16 26 1 -3
BITMAP
00078000
00024000
00000000
00000000
00000000
0001FC00
000B9000
00290000
00700000
01D00000
02800000
07000004
0E001AFD
1C00BFF4
280000F0
340002E0
700007E0
A0000FD0
E0002ED0
E000B4D0
B51BD0D0
2FFE01D0
06A401D0
000000E0
000000E0
000000A0
ENDCHAR
STARTCHAR gdotaccent
ENCODING 289
SWIDTH 437 0
DWIDTH 12 0
BBX 12 31 0 -12
BITMAP
000780
000640
000000
000140
001FF0
0079F4
01D0F4
0382F8
0B03B8
0D0778
2C0E38
381D3C
74383C
70743C
B0E03C
7BC02C
3F402D
04002D
00002D
00002D
00002D
00002C
00003C
000038
000074
0000B0
0000E0
0002C0
000B40
05BE00
06E400
ENDCHAR
STARTCHAR Gcommaaccent
ENCODING 290
SWIDTH 591 0
DWIDTH 17 0
BBX 16 28 0 -9
BITMAP
00000400
0000BE00
0007E400
001D0000
00380000
00A00000
01D00000
03800005
070006FE
0E007FF8
1C0000B4
280000F4
340002F0
740007F0
70001FB0
700078A0
7906E0B0
1FFF40B0
02A400B0
000000B0
000000B0
00004070
0002C000
0002C000
0002C000
0002C000
00028000
00024000
ENDCHAR
STARTCHAR Hcircumflex
ENCODING 292
SWIDTH 424 0
DWIDTH 12 0
BBX 10 29 1 0
BITMAP
038000
07E000
0D3400
2C1D00
340740
A002D0
D00090
400000
000000
000000
400200
D00340
D00380
D00280
D00280
D001C0
D002C0
D002C0
E007C0
E01ED0
E1B4D0
BF80D0
B800A0
B000A0
A000A0
A000A0
A000B0
A00070
A00060
ENDCHAR
STARTCHAR hcircumflex
ENCODING 293
SWIDTH 466 0
DWIDTH 13 0
BBX 13 27 1 -1
BITMAP
000A0000
001F8000
0038E000
00707400
00D01D00
81800B40
D3400240
D1000000
D0000000
D0000000
D0000000
D0000000
D006A000
E02FFC00
E07D1C00
E0F41C00
E2E01D00
E3C01D00
E7801D00
EB001D00
EE001D00
FC001D00
F8001D00
F0001D00
E0001D00
80000D00
00000400
ENDCHAR
STARTCHAR Hbar
ENCODING 294
SWIDTH 424 0
DWIDTH 12 0
BBX 11 19 0 0
BITMAP
100080
3400D0
3400E0
3400A0
3400A0
3AAFF8
7EA5B0
3400B0
3801F0
3807B4
386D34
2FE034
2E0028
2C0028
280028
280028
28002C
28001C
280018
ENDCHAR
STARTCHAR hbar
ENCODING 295
SWIDTH 466 0
DWIDTH 13 0
BBX 15 22 -2 -1
BITMAP
02000000
03400000
03400000
03400000
03400000
03401000
17EFF400
7BA56A80
0380BFF0
0381F470
0383D070
038B8074
038F0074
039E0074
03AC0074
03B80074
03F00074
03E00074
03C00074
03800074
02000034
00000010
ENDCHAR
STARTCHAR Itilde
ENCODING 296
SWIDTH 153 0
DWIDTH 4 0
BBX 11 28 -3 0
BITMAP
1F9014
79F0B8
A075F0
502FC0
000500
000000
000000
006000
007000
007000
007000
007400
003400
003400
003400
003400
003400
003400
003400
003400
003400
003400
003400
003400
003400
003400
002800
002400
ENDCHAR
STARTCHAR itilde
ENCODING 297
SWIDTH 132 0
DWIDTH 4 0
BBX 11 22 -4 0
BITMAP
0BE018
3DB43C
743DB8
201FE0
000540
000000
002400
003800
003800
003800
003800
003800
003800
003800
003400
003400
003400
003400
003400
003400
003800
003800
ENDCHAR
STARTCHAR imacron
ENCODING 299
SWIDTH 132 0
DWIDTH 4 0
BBX 10 21 -3 0
BITMAP
015AA0
FFFEA0
500000
000000
000000
009000
00E000
00E000
00E000
00E000
00E000
00E000
00E000
00D000
00D000
00D000
00D000
00D000
00D000
00E000
00E000
ENDCHAR
STARTCHAR Ibreve
ENCODING 300
SWIDTH 153 0
DWIDTH 4 0
BBX 7 27 -1 0
BITMAP
4018
E038
7AF4
1FD0
0100
0000
0600
0700
0700
0700
0740
0340
0340
0340
0340
0340
0340
0340
0340
0340
0340
0340
0340
0340
0340
0280
0240
ENDCHAR
STARTCHAR ibreve
ENCODING 301
SWIDTH 132 0
DWIDTH 4 0
BBX 7 22 -1 0
BITMAP
8028
E0B4
7FE0
1A40
0000
0000
0900
0E00
0E00
0E00
0E00
0E00
0E00
0E00
0D00
0D00
0D00
0D00
0D00
0D00
0E00
0E00
ENDCHAR
STARTCHAR Iogonek
ENCODING 302
SWIDTH 153 0
DWIDTH 4 0
BBX 7 27 0 -6
BITMAP
1800
1C00
1C00
1C00
1D00
0D00
0D00
0D00
0D00
0D00
0D00
0D00
0D00
0D00
0D00
0D00
0D00
0D00
0D00
0E00
2D00
7400
B000
A000
7468
3FF4
0540
ENDCHAR
STARTCHAR iogonek
ENCODING 303
SWIDTH 132 0
DWIDTH 4 0
BBX 7 28 -1 -7
BITMAP
1800
1C00
0000
0000
0000
0900
0E00
0E00
0E00
0E00
0E00
0E00
0E00
0D00
0D00
0D00
0D00
0D00
0D00
0E00
0E00
2D00
7400
B000
A000
75B8
2FF4
0540
ENDCHAR
STARTCHAR Idotaccent
ENCODING 304
SWIDTH 153 0
DWIDTH 4 0
BBX 3 25 1 0
BITMAP
B4
60
00
00
90
A0
A0
B0
70
70
70
70
70
70
70
70
70
70
70
74
74
74
34
34
20
ENDCHAR
STARTCHAR dotlessi
ENCODING 305
SWIDTH 132 0
DWIDTH 4 0
BBX 2 16 1 0
BITMAP
90
E0
E0
E0
E0
E0
E0
E0
D0
D0
D0
D0
D0
D0
E0
E0
ENDCHAR
STARTCHAR Jcircumflex
ENCODING 308
SWIDTH 371 0
DWIDTH 10 0
BBX 12 29 0 -2
BITMAP
002C00
003F00
00A280
01D0E0
028074
07001E
0A0005
040600
000700
000700
000740
000740
000340
000380
000280
0002C0
0002C0
0001C0
0001D0
0001D0
0000D0
0000D0
0000D0
8000D0
6000D0
3400D0
1C01C0
0B5780
01A900
ENDCHAR
STARTCHAR jcircumflex
ENCODING 309
SWIDTH 112 0
DWIDTH 3 0
BBX 12 36 -5 -10
BITMAP
003800
007E00
00D340
02C1D0
034074
0A002D
0D0009
040000
000000
000000
000000
000400
001D00
001D00
001D00
001D00
001D00
000D00
000D00
000D00
000D00
000E00
000E00
000A00
000A00
000A00
000B00
000B00
000700
000B00
000A00
400E00
B01D00
2D2C00
07F400
005000
ENDCHAR
STARTCHAR Kcommaaccent
ENCODING 310
SWIDTH 524 0
DWIDTH 15 0
BBX 14 28 1 -9
BITMAP
80000000
D0002000
A000D000
A0038000
A00B4000
701D0000
70380000
70B00000
35D00000
36800000
3F000000
3E000000
2D000000
2E500000
2FFFFFD0
2C000000
1C000000
0D000000
08000000
00000000
00000000
00040000
002C0000
002D0000
002C0000
002C0000
00280000
00240000
ENDCHAR
STARTCHAR kcommaaccent
ENCODING 311
SWIDTH 428 0
DWIDTH 12 0
BBX 12 31 0 -9
BITMAP
040000
2C0000
2C0000
2C0000
2C0000
2C0004
2C002D
2C0078
2C00F4
2C02E0
3807C0
380F40
382E00
387C00
39F000
3FC000
3E0000
3F4000
3BE400
746F94
7402FC
700018
600000
000000
001000
003800
003C00
003800
003800
003400
003000
ENDCHAR
STARTCHAR Lacute
ENCODING 313
SWIDTH 537 0
DWIDTH 15 0
BBX 15 20 0 0
BITMAP
0000A000
0002D000
24074000
78050000
38000000
38000000
3C000000
3C000000
3C000000
3C000000
3C000000
2C000000
2C000000
2C000014
2C0001B8
2C001B90
2D01F800
2D2F9000
2FF90000
2F900000
ENDCHAR
STARTCHAR lacute
ENCODING 314
SWIDTH 137 0
DWIDTH 4 0
BBX 4 31 0 0
BITMAP
0E
3D
B4
50
00
00
00
60
70
34
34
34
24
24
28
28
28
28
18
18
18
1C
1C
1C
1C
1C
1C
2C
2C
2C
04
ENDCHAR
STARTCHAR Lcommaaccent
ENCODING 315
SWIDTH 537 0
DWIDTH 15 0
BBX 15 27 0 -9
BITMAP
24000000
78000000
38000000
38000000
3C000000
3C000000
3C000000
3C000000
3C000000
2C000000
2C000000
2C000014
2C0001B8
2C001B90
2D01F800
2D2F9000
2FF90000
2F900000
00000000
00000000
00010000
000B4000
000B4000
00074000
00070000
00070000
00060000
ENDCHAR
STARTCHAR lcommaaccent
ENCODING 316
SWIDTH 137 0
DWIDTH 4 0
BBX 3 33 0 -9
BITMAP
60
70
34
34
34
24
24
28
28
28
28
18
18
18
1C
1C
1C
1C
1C
1C
2C
2C
2C
04
00
00
10
38
38
38
38
34
30
ENDCHAR
STARTCHAR Lcaron
ENCODING 317
SWIDTH 537 0
DWIDTH 15 0
BBX 15 26 0 0
BITMAP
04000000
0D002800
0700A000
02828000
00AD0000
00240000
00000000
00000000
24000000
78000000
38000000
38000000
3C000000
3C000000
3C000000
3C000000
3C000000
2C000000
2C000000
2C000014
2C0001B8
2C001B90
2D01F800
2D2F9000
2FF90000
2F900000
ENDCHAR
STARTCHAR Ldot
ENCODING 319
SWIDTH 537 0
DWIDTH 15 0
BBX 15 18 0 0
BITMAP
24000000
78000000
38000000
38000000
3C000000
3C000000
3C000000
3C000000
3C000000
2C000000
2C074000
2C064014
2C0001B8
2C001B90
2D01F800
2D2F9000
2FF90000
2F900000
ENDCHAR
STARTCHAR ldot
ENCODING 320
SWIDTH 267 0
DWIDTH 8 0
BBX 7 24 0 0
BITMAP
6000
7000
3400
3400
3400
2400
2400
2800
2800
2800
2800
1800
1800
1800
1C00
1C00
1C74
1C64
1C00
1C00
2C00
2C00
2C00
0400
ENDCHAR
STARTCHAR Lslash
ENCODING 321
SWIDTH 537 0
DWIDTH 15 0
BBX 16 18 -1 0
BITMAP
09000000
1E000000
0E000000
0E000000
0F000000
0F000000
0F000000
0F000000
0F006000
0F1BF400
0BFE4000
BF900005
5B00006E
0B0006E4
0B407E00
0B4BE400
0BFE4000
0BE40000
ENDCHAR
STARTCHAR lslash
ENCODING 322
SWIDTH 137 0
DWIDTH 4 0
BBX 10 24 -3 0
BITMAP
018000
01C000
00C000
00D000
00D000
009000
009000
00A000
00A000
00A000
00A000
006000
006000
006000
007000
0076F0
00BF90
6BF400
A97000
007000
00B000
00B000
00B000
001000
ENDCHAR
STARTCHAR Nacute
ENCODING 323
SWIDTH 541 0
DWIDTH 15 0
BBX 13 24 1 0
BITMAP
00040000
002C0000
00780400
00E00E00
00400B00
00000B00
D0000700
F4000700
FC000700
FE000700
BB800740
B2D00740
B0B00340
70380340
701E0340
74074340
3402C340
3400E740
38003B40
28001F80
2C000BC0
2C0003C0
1C000240
18000000
ENDCHAR
STARTCHAR nacute
ENCODING 324
SWIDTH 483 0
DWIDTH 14 0
BBX 12 21 1 0
BITMAP
001D00
007C00
00B400
004000
000040
C00BE0
D02FF0
D07838
E0B428
E0E01C
E1D01C
B2C01D
B3801D
B7401D
BB001D
BE000D
7D000D
7D000D
7C000D
7C000D
340004
ENDCHAR
STARTCHAR Ncommaaccent
ENCODING 325
SWIDTH 541 0
DWIDTH 15 0
BBX 13 31 1 -9
BITMAP
00000400
00000E00
00000B00
00000B00
D0000700
F4000700
FC000700
FE000700
BB800740
B2D00740
B0B00340
70380340
701E0340
74074340
3402C340
3400E740
38003B40
28001F80
2C000BC0
2C0003C0
1C000240
18000000
00000000
00000000
00040000
002D0000
002D0000
001D0000
001C0000
001C0000
00180000
ENDCHAR
STARTCHAR ncommaaccent
ENCODING 326
SWIDTH 483 0
DWIDTH 14 0
BBX 12 26 1 -9
BITMAP
000040
C00BE0
D02FF0
D07838
E0B428
E0E01C
E1D01C
B2C01D
B3801D
B7401D
BB001D
BE000D
7D000D
7D000D
7C000D
7C000D
340004
000000
000000
001000
007400
007800
003800
007400
007000
006000
ENDCHAR
STARTCHAR Ncaron
ENCODING 327
SWIDTH 541 0
DWIDTH 15 0
BBX 13 26 1 0
BITMAP
04000000
0D002800
0700A000
02828000
00AD0400
00240E00
00000B00
00000B00
D0000700
F4000700
FC000700
FE000700
BB800740
B2D00740
B0B00340
70380340
701E0340
74074340
3402C340
3400E740
38003B40
28001F80
2C000BC0
2C0003C0
1C000240
18000000
ENDCHAR
STARTCHAR ncaron
ENCODING 328
SWIDTH 483 0
DWIDTH 14 0
BBX 12 23 1 0
BITMAP
100000
180074
0A01D0
034740
01E800
006000
000040
C00BE0
D02FF0
D07838
E0B428
E0E01C
E1D01C
B2C01D
B3801D
B7401D
BB001D
BE000D
7D000D
7D000D
7C000D
7C000D
340004
ENDCHAR
STARTCHAR napostrophe
ENCODING 329
SWIDTH 483 0
DWIDTH 14 0
BBX 12 25 1 0
BITMAP
010000
0B4000
0B4000
074000
070000
070000
060000
000000
000040
C00BE0
D02FF0
D07838
E0B428
E0E01C
E1D01C
B2C01D
B3801D
B7401D
BB001D
BE000D
7D000D
7D000D
7C000D
7C000D
340004
ENDCHAR
STARTCHAR Omacron
ENCODING 332
SWIDTH 382 0
DWIDTH 11 0
BBX 12 23 0 0
BITMAP
0015AA
0FFFE9
050000
000000
002A00
01FF80
03D1E0
0700B0
0E0070
1D0074
2C0074
280074
380074
740074
7000B0
7000B0
B000E0
B001D0
7002C0
740740
381E00
1FF800
0BE000
ENDCHAR
STARTCHAR omacron
ENCODING 333
SWIDTH 266 0
DWIDTH 7 0
BBX 10 21 -1 0
BITMAP
015AA0
FFFEA0
500000
000000
000000
004000
03F400
07A800
0A0900
0D0A00
0D0700
1C0700
1C0700
1C0B00
1C0B00
1C0A00
1C0D00
1C1C00
1D3800
0FF000
0B8000
ENDCHAR
STARTCHAR Obreve
ENCODING 334
SWIDTH 382 0
DWIDTH 11 0
BBX 11 24 0 0
BITMAP
040180
0A0380
07AF40
01FD00
001000
002A00
01FF80
03D1E0
0700B0
0E0070
1D0074
2C0074
280074
380074
740074
7000B0
7000B0
B000E0
B001D0
7002C0
740740
381E00
1FF800
0BE000
ENDCHAR
STARTCHAR obreve
ENCODING 335
SWIDTH 266 0
DWIDTH 7 0
BBX 8 21 0 0
BITMAP
1005
741D
2EB8
0BE0
0040
0100
0FD0
1EA0
2824
3428
341C
701C
701C
702C
702C
7028
7034
7070
74E0
3FC0
2E00
ENDCHAR
STARTCHAR Ohungarumlaut
ENCODING 336
SWIDTH 382 0
DWIDTH 11 0
BBX 11 24 0 0
BITMAP
000744
001F7C
003DF4
0011D0
000000
002A00
01FF80
03D1E0
0700B0
0E0070
1D0074
2C0074
280074
380074
740074
7000B0
7000B0
B000E0
B001D0
7002C0
740740
381E00
1FF800
0BE000
ENDCHAR
STARTCHAR ohungarumlaut
ENCODING 337
SWIDTH 266 0
DWIDTH 7 0
BBX 7 21 0 0
BITMAP
0748
0F6C
2DB4
14D0
0000
0100
0FD0
1EA0
2824
3428
341C
701C
701C
702C
702C
7028
7034
7070
74E0
3FC0
2E00
ENDCHAR
STARTCHAR OE
ENCODING 338
SWIDTH 732 0
DWIDTH 21 0
BBX 20 20 0 0
BITMAP
00005001B4
002AB06F80
01FFF6F400
03D1FF4000
0700B80000
0E00740000
1D00740000
2C00740050
2800740680
3800742E00
74007AE000
7000BF4000
7000BC0000
B000FC0006
B001FC002E
7002EC01E4
74076C0B80
381E2C7900
1FF82FD000
0BE02E0000
ENDCHAR
STARTCHAR oe
ENCODING 339
SWIDTH 628 0
DWIDTH 18 0
BBX 18 16 0 0
BITMAP
0100000000
0FD01BE000
1EA03E7C00
2824B42D00
3429E07800
341EC6E000
701FEE4000
701FF40000
702F800050
702F4001D0
702F4003C0
703B400B40
7077402D00
74E340B400
3F81EB8000
2E00690000
ENDCHAR
STARTCHAR Racute
ENCODING 340
SWIDTH 503 0
DWIDTH 14 0
BBX 13 26 1 0
BITMAP
00028000
000B4000
001E0000
00040000
F0055000
F0BFFD00
FB941F40
FD000740
F0000E00
E0007800
E002D000
E01E0000
E1F40000
EB800000
FD000000
F4000000
FE400000
EBE40000
D1BE0000
D01BE000
D000BE40
D0000BC0
D0000000
D0000000
D0000000
90000000
ENDCHAR
STARTCHAR racute
ENCODING 341
SWIDTH 396 0
DWIDTH 11 0
BBX 11 20 0 0
BITMAP
000A00
002D00
007400
001000
000000
000040
701FF4
747E50
34B400
38E000
29D000
29C000
1DC000
1EC000
0EC000
0F8000
0B8000
0B8000
078000
074000
ENDCHAR
STARTCHAR Rcommaaccent
ENCODING 342
SWIDTH 503 0
DWIDTH 14 0
BBX 13 31 1 -9
BITMAP
F0055000
F0BFFD00
FB941F40
FD000740
F0000E00
E0007800
E002D000
E01E0000
E1F40000
EB800000
FD000000
F4000000
FE400000
EBE40000
D1BE0000
D01BE000
D000BE40
D0000BC0
D0000000
D0000000
D0000000
90000000
00000000
00000000
00000000
00380000
003C0000
00380000
00380000
00340000
00300000
ENDCHAR
STARTCHAR rcommaaccent
ENCODING 343
SWIDTH 396 0
DWIDTH 11 0
BBX 11 24 0 -9
BITMAP
000040
701FF4
747E50
34B400
38E000
29D000
29C000
1DC000
1EC000
0EC000
0F8000
0B8000
0B8000
078000
074000
000000
000000
001000
007400
007400
007400
007400
007000
006000
ENDCHAR
STARTCHAR Rcaron
ENCODING 344
SWIDTH 503 0
DWIDTH 14 0
BBX 13 29 1 0
BITMAP
04000000
0A001C00
03407400
01D28000
007A0000
00280000
00000000
F0055000
F0BFFD00
FB941F40
FD000740
F0000E00
E0007800
E002D000
E01E0000
E1F40000
EB800000
FD000000
F4000000
FE400000
EBE40000
D1BE0000
D01BE000
D000BE40
D0000BC0
D0000000
D0000000
D0000000
90000000
ENDCHAR
STARTCHAR rcaron
ENCODING 345
SWIDTH 396 0
DWIDTH 11 0
BBX 11 23 0 0
BITMAP
100000
280070
0D01D0
074A00
01E800
00A000
000000
000000
000040
701FF4
747E50
34B400
38E000
29D000
29C000
1DC000
1EC000
0EC000
0F8000
0B8000
0B8000
078000
074000
ENDCHAR
STARTCHAR Sacute
ENCODING 346
SWIDTH 541 0
DWIDTH 15 0
BBX 15 25 0 0
BITMAP
0000E000
0003D000
000B4000
00050000
00001400
0006FE00
002D6800
01E00000
07800000
0E000000
2C000000
74000000
B0000000
A0000000
70000000
39000000
0BE54000
005AFF90
000001B4
00000074
000002E0
00006F40
001BE400
01FE4000
01400000
ENDCHAR
STARTCHAR sacute
ENCODING 347
SWIDTH 366 0
DWIDTH 10 0
BBX 10 21 0 -1
BITMAP
001D00
007C00
00F000
004000
000000
000000
006F40
02D600
0E0000
2C0000
380000
740000
700A80
3EFFE0
2F90B0
0000E0
0002C0
001F40
007D00
02F400
024000
ENDCHAR
STARTCHAR Scircumflex
ENCODING 348
SWIDTH 541 0
DWIDTH 15 0
BBX 15 29 0 0
BITMAP
00074000
000BD000
001C7000
00382C00
00700A00
00D00380
01800180
01000000
00001400
0006FE00
002D6800
01E00000
07800000
0E000000
2C000000
74000000
B0000000
A0000000
70000000
39000000
0BE54000
005AFF90
000001B4
00000074
000002E0
00006F40
001BE400
01FE4000
01400000
ENDCHAR
STARTCHAR scircumflex
ENCODING 349
SWIDTH 366 0
DWIDTH 10 0
BBX 11 23 0 -1
BITMAP
00E000
01F800
034D00
0B0740
0D02C0
2800B4
300020
100000
006F40
02D600
0E0000
2C0000
380000
740000
700A80
3EFFE0
2F90B0
0000E0
0002C0
001F40
007D00
02F400
024000
ENDCHAR
STARTCHAR Scedilla
ENCODING 350
SWIDTH 541 0
DWIDTH 15 0
BBX 16 29 0 -8
BITMAP
00001400
0006FE00
002D6800
01E00000
07800000
0E000000
2C000000
74000000
B0000000
A0000000
70000000
39000000
0BE54000
005AFF90
000001B4
00000074
000002E0
00006F40
001BF400
01FE6400
01403400
00003800
00003E40
00001FE0
000001BC
0000003D
000001BD
00002FF4
00001500
ENDCHAR
STARTCHAR scedilla
ENCODING 351
SWIDTH 366 0
DWIDTH 10 0
BBX 11 23 0 -9
BITMAP
006F40
02D600
0E0000
2C0000
380000
740000
700A80
3EFFE0
2F90B0
0000E0
0002C0
001F40
007D00
02F400
02D000
00D000
00F400
00BF40
001BE0
0000F4
0001F4
00AFE0
00A940
ENDCHAR
STARTCHAR Scaron
ENCODING 352
SWIDTH 541 0
DWIDTH 15 0
BBX 15 26 0 0
BITMAP
01000000
02800700
00D01D00
0074A000
001E8000
00091400
0006FE00
002D6800
01E00000
07800000
0E000000
2C000000
74000000
B0000000
A0000000
70000000
39000000
0BE54000
005AFF90
000001B4
00000074
000002E0
00006F40
001BE400
01FE4000
01400000
ENDCHAR
STARTCHAR scaron
ENCODING 353
SWIDTH 366 0
DWIDTH 10 0
BBX 10 23 0 -1
BITMAP
500000
3400A0
1C0280
0A0A00
02B400
009000
000000
000000
006F40
02D600
0E0000
2C0000
380000
740000
700A80
3EFFE0
2F90B0
0000E0
0002C0
001F40
007D00
02F400
024000
ENDCHAR
STARTCHAR Tcommaaccent
ENCODING 354
SWIDTH 595 0
DWIDTH 17 0
BBX 20 29 0 -9
BITMAP
0000701569
0005BFFFE4
2BFFF95000
BA50740000
0000340000
0000380000
0000280000
0000280000
0000280000
00002C0000
00001C0000
00001D0000
00001D0000
00000D0000
00000E0000
00000E0000
00000B0000
00000B0000
0000070000
0000070000
0000000000
0000000000
0000004000
000003C000
000003C000
000002C000
0000028000
0000024000
0000024000
ENDCHAR
STARTCHAR tcommaaccent
ENCODING 355
SWIDTH 268 0
DWIDTH 8 0
BBX 9 31 -1 -9
BITMAP
010000
074000
074000
074000
070000
070000
070540
07BF80
1FF800
BF4000
BB0000
070000
074000
074000
074000
074000
074000
034000
034000
034000
034000
038000
014000
000000
004000
01E000
01E000
00E000
00D000
00C000
018000
ENDCHAR
STARTCHAR Tcaron
ENCODING 356
SWIDTH 595 0
DWIDTH 17 0
BBX 20 28 0 0
BITMAP
0004000000
0006001D00
0002807400
0000D1D000
00007A0000
0000180000
0000000000
0000000000
0000701569
0005BFFFE4
2BFFF95000
BA50740000
0000340000
0000380000
0000280000
0000280000
0000280000
00002C0000
00001C0000
00001D0000
00001D0000
00000D0000
00000E0000
00000E0000
00000B0000
00000B0000
0000070000
0000070000
ENDCHAR
STARTCHAR Tbar
ENCODING 358
SWIDTH 595 0
DWIDTH 17 0
BBX 20 20 0 0
BITMAP
0000701569
0005BFFFE4
2BFFF95000
BA50740000
0000340000
0000380000
00017EF400
007FFEA400
0000280000
00002C0000
00001C0000
00001D0000
00001D0000
00000D0000
00000E0000
00000E0000
00000B0000
00000B0000
0000070000
0000070000
ENDCHAR
STARTCHAR Utilde
ENCODING 360
SWIDTH 450 0
DWIDTH 13 0
BBX 11 27 1 -3
BITMAP
1BE014
39B47C
7039F4
501FD0
000500
000000
000010
900038
E00038
E00078
E00078
E000B8
E000B8
E000F4
E000F4
E001F4
E002F4
E002B4
E00374
A00B28
A00D28
742C28
3EF01C
0A401C
00001C
00001C
00000C
ENDCHAR
STARTCHAR utilde
ENCODING 361
SWIDTH 387 0
DWIDTH 11 0
BBX 11 21 0 -1
BITMAP
1F9014
79E0B4
E0B5F0
902F80
000500
000000
200140
3401C0
3401C0
3402C0
3402C0
3802C0
3802C0
3802C0
3807C0
280BC0
2C1FD0
1C3DD0
0EF4E0
07D0A0
000050
ENDCHAR
STARTCHAR Umacron
ENCODING 362
SWIDTH 450 0
DWIDTH 13 0
BBX 11 24 1 -3
BITMAP
005AA4
BFFEA4
140000
000010
900038
E00038
E00078
E00078
E000B8
E000B8
E000F4
E000F4
E001F4
E002F4
E002B4
E00374
A00B28
A00D28
742C28
3EF01C
0A401C
00001C
00001C
00000C
ENDCHAR
STARTCHAR umacron
ENCODING 363
SWIDTH 387 0
DWIDTH 11 0
BBX 11 22 0 -1
BITMAP
005AA4
7FFEA4
140000
000000
000000
000000
000000
200140
3401C0
3401C0
3402C0
3402C0
3802C0
3802C0
3802C0
3807C0
280BC0
2C1FD0
1C3DD0
0EF4E0
07D0A0
000050
ENDCHAR
STARTCHAR Ubreve
ENCODING 364
SWIDTH 450 0
DWIDTH 13 0
BBX 11 24 1 -3
BITMAP
040080
0A02C0
03AF40
01FD10
901038
E00038
E00078
E00078
E000B8
E000B8
E000F4
E000F4
E001F4
E002F4
E002B4
E00374
A00B28
A00D28
742C28
3EF01C
0A401C
00001C
00001C
00000C
ENDCHAR
STARTCHAR ubreve
ENCODING 365
SWIDTH 387 0
DWIDTH 11 0
BBX 9 22 1 -1
BITMAP
000200
2C0B00
0BAE00
02F800
004000
000000
000000
800500
D00700
D00700
D00B00
D00B00
E00B00
E00B00
E00B00
E01F00
A02F00
B07F40
70F740
3BD380
1F4280
000140
ENDCHAR
STARTCHAR Uring
ENCODING 366
SWIDTH 450 0
DWIDTH 13 0
BBX 11 26 1 -3
BITMAP
01B900
0F5B00
0D0740
0E4B40
06F900
000010
900038
E00038
E00078
E00078
E000B8
E000B8
E000F4
E000F4
E001F4
E002F4
E002B4
E00374
A00B28
A00D28
742C28
3EF01C
0A401C
00001C
00001C
00000C
ENDCHAR
STARTCHAR uring
ENCODING 367
SWIDTH 387 0
DWIDTH 11 0
BBX 9 20 1 -1
BITMAP
06E800
2E6D00
280A00
2D1E00
0BE400
800500
D00700
D00700
D00B00
D00B00
E00B00
E00B00
E00B00
E01F00
A02F00
B07F40
70F740
3BD380
1F4280
000140
ENDCHAR
STARTCHAR Uhungarumlaut
ENCODING 368
SWIDTH 450 0
DWIDTH 13 0
BBX 11 26 1 -3
BITMAP
00A140
02DB40
075E00
052800
000000
000010
900038
E00038
E00078
E00078
E000B8
E000B8
E000F4
E000F4
E001F4
E002F4
E002B4
E00374
A00B28
A00D28
742C28
3EF01C
0A401C
00001C
00001C
00000C
ENDCHAR
STARTCHAR uhungarumlaut
ENCODING 369
SWIDTH 387 0
DWIDTH 11 0
BBX 9 20 1 -1
BITMAP
074800
1F7C00
3DF400
11D000
000000
800500
D00700
D00700
D00B00
D00B00
E00B00
E00B00
E00B00
E01F00
A02F00
B07F40
70F740
3BD380
1F4280
000140
ENDCHAR
STARTCHAR Uogonek
ENCODING 370
SWIDTH 450 0
DWIDTH 13 0
BBX 14 26 1 -8
BITMAP
00001000
90003800
E0003800
E0007800
E0007800
E000B800
E000B800
E000F400
E000F400
E001F400
E002F400
E002B400
E0037400
A00B2800
A00D2800
742C2800
3EF01C00
0A401C00
00002C00
0000BC00
0001DC00
00028000
00038000
00028190
0001FFD0
00006A00
ENDCHAR
STARTCHAR uogonek
ENCODING 371
SWIDTH 387 0
DWIDTH 11 0
BBX 12 21 1 -7
BITMAP
800500
D00700
D00700
D00B00
D00B00
E00B00
E00B00
E00B00
E01F00
A02F00
B07F40
70F740
3BD380
1F4780
001E40
003800
003400
007400
00386D
002FF8
000650
ENDCHAR
STARTCHAR Wcircumflex
ENCODING 372
SWIDTH 878 0
DWIDTH 25 0
BBX 24 30 0 -1
BITMAP
000003400000
00000BD00000
00001D740000
0000282C0000
0000700A0000
00009003C000
0001C0018000
000140000000
000000000009
00000000000D
00000000001D
10000050002C
740000F00028
780001F40034
2C0002F80074
1D00037C0070
0E00072D00A0
0B000A1D00D0
07400D0E01D0
03800C0701C0
02C01C034280
02D02802C340
01E03401D740
00F07000A700
00B4A0007E00
0078D0002E00
003EC0001D00
002F80000400
001F40000000
000500000000
ENDCHAR
STARTCHAR wcircumflex
ENCODING 373
SWIDTH 566 0
DWIDTH 16 0
BBX 14 26 1 0
BITMAP
001C0000
003F0000
00A28000
00D0E000
02803800
07001E00
0A000500
04000000
00000000
00000000
00000000
00040040
C02C00D0
E03E00E0
B03B40E0
7436C0E0
3874D0E0
2C74B0E0
1D7438E0
0BB41DE0
07F00AE0
03F003E0
02F002E0
01F000F0
00F00010
00600000
ENDCHAR
STARTCHAR Ycircumflex
ENCODING 374
SWIDTH 483 0
DWIDTH 14 0
BBX 13 30 0 0
BITMAP
002C0000
003E0000
00A28000
01D0E000
02807400
07001E00
09000900
04000000
00000080
000001C0
00000280
00000340
50000700
74000A00
2C000D00
1E001C00
07802C00
02D03800
00B47400
003DB000
000FD000
0007C000
00038000
00074000
00070000
000A0000
000D0000
001C0000
00280000
00240000
ENDCHAR
STARTCHAR ycircumflex
ENCODING 375
SWIDTH 363 0
DWIDTH 10 0
BBX 10 37 0 -11
BITMAP
01D000
03F400
072C00
0D0A00
1C0380
3400E0
A00060
400000
000000
000000
000000
000050
0000A0
6000A0
7800A0
2D00E0
0E00E0
0B40E0
03C0D0
01E0D0
00B4D0
003DD0
001FD0
000BD0
0003D0
0002D0
0001C0
0001C0
0001C0
0002C0
000280
000280
000280
000380
000340
000340
000140
ENDCHAR
STARTCHAR Ydieresis
ENCODING 376
SWIDTH 483 0
DWIDTH 14 0
BBX 13 22 0 0
BITMAP
00000080
00A1A1C0
00A1D280
00000340
50000700
74000A00
2C000D00
1E001C00
07802C00
02D03800
00B47400
003DB000
000FD000
0007C000
00038000
00074000
00070000
000A0000
000D0000
001C0000
00280000
00240000
ENDCHAR
STARTCHAR Zacute
ENCODING 377
SWIDTH 670 0
DWIDTH 19 0
BBX 18 25 0 0
BITMAP
0000380000
0000F40000
0002D00000
0001400000
0000000000
0000000000
3FFFFFFD00
000055BD00
000000B800
000001E000
000007C000
00000F4000
00002D0000
0000B80000
0001E00000
0007C00000
000F400000
002D000000
0078000000
01E0000000
03C0000000
0B40000000
2D00000150
7FFFFFFFF0
3FAAAAA950
ENDCHAR
STARTCHAR zacute
ENCODING 378
SWIDTH 618 0
DWIDTH 17 0
BBX 17 20 1 0
BITMAP
0000A00000
0002D00000
0007800000
0001000000
0000000000
0000000000
0002F00000
006FF00000
5BE5F00000
F902D00000
0003C00000
000B400000
000E000000
002C000000
0038000000
0070000000
00A0005A40
00E06BFF80
01FFFE9400
02FA400000
ENDCHAR
STARTCHAR Zdotaccent
ENCODING 379
SWIDTH 670 0
DWIDTH 19 0
BBX 18 22 0 0
BITMAP
0000B40000
0000600000
0000000000
3FFFFFFD00
000055BD00
000000B800
000001E000
000007C000
00000F4000
00002D0000
0000B80000
0001E00000
0007C00000
000F400000
002D000000
0078000000
01E0000000
03C0000000
0B40000000
2D00000150
7FFFFFFFF0
3FAAAAA950
ENDCHAR
STARTCHAR zdotaccent
ENCODING 380
SWIDTH 618 0
DWIDTH 17 0
BBX 17 17 1 0
BITMAP
0007800000
0002400000
0000000000
0002F00000
006FF00000
5BE5F00000
F902D00000
0003C00000
000B400000
000E000000
002C000000
0038000000
0070000000
00A0005A40
00E06BFF80
01FFFE9400
02FA400000
ENDCHAR
STARTCHAR Zcaron
ENCODING 381
SWIDTH 670 0
DWIDTH 19 0
BBX 18 27 0 0
BITMAP
0010000000
001C003400
000A01D000
0002874000
0000ED0000
0000600000
0000000000
0000000000
3FFFFFFD00
000055BD00
000000B800
000001E000
000007C000
00000F4000
00002D0000
0000B80000
0001E00000
0007C00000
000F400000
002D000000
0078000000
01E0000000
03C0000000
0B40000000
2D00000150
7FFFFFFFF0
3FAAAAA950
ENDCHAR
STARTCHAR zcaron
ENCODING 382
SWIDTH 618 0
DWIDTH 17 0
BBX 17 21 1 0
BITMAP
0400000000
07000D0000
0280740000
00A1D00000
003B400000
0018000000
0000000000
0002F00000
006FF00000
5BE5F00000
F902D00000
0003C00000
000B400000
000E000000
002C000000
0038000000
0070000000
00A0005A40
00E06BFF80
01FFFE9400
02FA400000
ENDCHAR
STARTCHAR florin
ENCODING 402
SWIDTH 345 0
DWIDTH 10 0
BBX 11 32 -1 -7
BITMAP
002D00
007F40
00B680
00F0C0
00E040
01E000
01E000
01D000
01D000
01D000
01D010
01C2F4
01EFD0
02E400
0FC000
04D000
00D000
00D000
00D000
00D000
00E000
00E000
00E000
00E000
00F000
00F000
00F000
00F000
00F000
00F000
6AE000
6FD000
ENDCHAR
STARTCHAR AEacute
ENCODING 508
SWIDTH 708 0
DWIDTH 20 0
BBX 20 27 0 0
BITMAP
0000100000
0000B00000
0002E00000
0007800000
0001000000
0000000000
0340000050
0781D01B90
07D1E2F900
0BE0FF9000
0B70F90000
0A34A00000
0E28A00000
0E1CA00040
0D0DA00280
1D0A702D00
1D07B2E000
1D07FE4000
2C07F80000
2C1FF40000
2FE6F4002D
2E00F401F4
3800B40780
3400746D00
34007AE000
74007F4000
1000140000
ENDCHAR
STARTCHAR aeacute
ENCODING 509
SWIDTH 705 0
DWIDTH 20 0
BBX 20 21 0 0
BITMAP
0000010000
00000B0000
00002E0000
0000380000
0000100000
0000006800
002F47FF40
00BF8B43C0
01E39E07C0
03C3AC1E00
0B47F9F400
0E0BFF8000
2D0FF80000
382FF0001D
7439F00078
B0B0E000F4
A1E0E002D0
D3C0F00B40
AF40B97D00
BD00AFD000
2400500000
ENDCHAR
STARTCHAR Oslashacute
ENCODING 510
SWIDTH 382 0
DWIDTH 11 0
BBX 11 27 0 -2
BITMAP
000100
000740
001E00
003800
001000
000080
002AC0
01FFC0
03D3E0
0707B0
0E0A70
1D0D74
2C1C74
282874
383474
747074
70A0B0
7090B0
B0C0E0
B1C1D0
7282C0
774740
3F1E00
1FF800
0FE000
1C0000
180000
ENDCHAR
STARTCHAR oslashacute
ENCODING 511
SWIDTH 266 0
DWIDTH 7 0
BBX 8 24 0 -2
BITMAP
0010
00B0
02E0
0780
0100
0004
010D
0FEC
1EB8
2834
3478
34FC
71DC
729C
736C
772C
7A28
7D34
7C70
78E0
7FC0
7E00
9000
C000
ENDCHAR
STARTCHAR Scommaaccent
ENCODING 536
SWIDTH 541 0
DWIDTH 15 0
BBX 15 30 0 -9
BITMAP
00001400
0006FE00
002D6800
01E00000
07800000
0E000000
2C000000
74000000
B0000000
A0000000
70000000
39000000
0BE54000
005AFF90
000001B4
00000074
000002E0
00006F40
001BE400
01FE4000
01400000
00000000
00000000
00010000
000B4000
000B4000
00074000
00070000
00070000
00060000
ENDCHAR
STARTCHAR scommaaccent
ENCODING 537
SWIDTH 366 0
DWIDTH 10 0
BBX 10 23 0 -9
BITMAP
006F40
02D600
0E0000
2C0000
380000
740000
700A80
3EFFE0
2F90B0
0000E0
0002C0
001F40
007D00
02F400
024000
000000
001000
00F000
00F000
00B000
00A000
00A000
009000
ENDCHAR
STARTCHAR circumflex
ENCODING 710
SWIDTH 390 0
DWIDTH 11 0
BBX 10 8 1 18
BITMAP
028000
07E000
0E3800
1C1D00
340740
A002D0
D00090
400000
ENDCHAR
STARTCHAR caron
ENCODING 711
SWIDTH 390 0
DWIDTH 11 0
BBX 10 6 1 17
BITMAP
500000
3400A0
1C0280
0A0A00
03B400
009000
ENDCHAR
STARTCHAR breve
ENCODING 728
SWIDTH 390 0
DWIDTH 11 0
BBX 7 5 2 16
BITMAP
4014
D078
7AF0
1FC0
0100
ENDCHAR
STARTCHAR dotaccent
ENCODING 729
SWIDTH 128 0
DWIDTH 4 0
BBX 3 2 0 15
BITMAP
78
64
ENDCHAR
STARTCHAR ring
ENCODING 730
SWIDTH 266 0
DWIDTH 7 0
BBX 7 5 0 14
BITMAP
1AE0
79B8
702C
7878
1BA0
ENDCHAR
STARTCHAR ogonek
ENCODING 731
SWIDTH 366 0
DWIDTH 10 0
BBX 7 8 2 -7
BITMAP
0100
0F00
2C00
3400
7000
7418
2EFC
0BA0
ENDCHAR
STARTCHAR tilde
ENCODING 732
SWIDTH 458 0
DWIDTH 13 0
BBX 11 5 1 15
BITMAP
1F9014
B9E0B4
E0B5F0
902F80
000500
ENDCHAR
STARTCHAR hungarumlaut
ENCODING 733
SWIDTH 239 0
DWIDTH 7 0
BBX 7 4 0 13
BITMAP
0A10
2DB4
76E0
5380
ENDCHAR
STARTCHAR Wgrave
ENCODING 7808
SWIDTH 878 0
DWIDTH 25 0
BBX 24 28 0 -1
BITMAP
000002000000
000003800000
000001D00000
000000B00000
000000100000
000000000000
000000000009
00000000000D
00000000001D
10000050002C
740000F00028
780001F40034
2C0002F80074
1D00037C0070
0E00072D00A0
0B000A1D00D0
07400D0E01D0
03800C0701C0
02C01C034280
02D02802C340
01E03401D740
00F07000A700
00B4A0007E00
0078D0002E00
003EC0001D00
002F80000400
001F40000000
000500000000
ENDCHAR
STARTCHAR wgrave
ENCODING 7809
SWIDTH 566 0
DWIDTH 16 0
BBX 14 21 1 0
BITMAP
00200000
00380000
001D0000
000B0000
00010000
00000000
00040040
C02C00D0
E03E00E0
B03B40E0
7436C0E0
3874D0E0
2C74B0E0
1D7438E0
0BB41DE0
07F00AE0
03F003E0
02F002E0
01F000F0
00F00010
00600000
ENDCHAR
STARTCHAR Wacute
ENCODING 7810
SWIDTH 878 0
DWIDTH 25 0
BBX 24 27 0 -1
BITMAP
000000400000
000001C00000
000007800000
00000E000000
000004000000
000000000009
00000000000D
00000000001D
10000050002C
740000F00028
780001F40034
2C0002F80074
1D00037C0070
0E00072D00A0
0B000A1D00D0
07400D0E01D0
03800C0701C0
02C01C034280
02D02802C340
01E03401D740
00F07000A700
00B4A0007E00
0078D0002E00
003EC0001D00
002F80000400
001F40000000
000500000000
ENDCHAR
STARTCHAR wacute
ENCODING 7811
SWIDTH 566 0
DWIDTH 16 0
BBX 14 21 1 0
BITMAP
00004000
0001C000
00078000
000E0000
00040000
00000000
00040040
C02C00D0
E03E00E0
B03B40E0
7436C0E0
3874D0E0
2C74B0E0
1D7438E0
0BB41DE0
07F00AE0
03F003E0
02F002E0
01F000F0
00F00010
00600000
ENDCHAR
STARTCHAR Wdieresis
ENCODING 7812
SWIDTH 878 0
DWIDTH 25 0
BBX 24 25 0 -1
BITMAP
00000A1D0000
00000D180000
000000000000
000000000009
00000000000D
00000000001D
10000050002C
740000F00028
780001F40034
2C0002F80074
1D00037C0070
0E00072D00A0
0B000A1D00D0
07400D0E01D0
03800C0701C0
02C01C034280
02D02802C340
01E03401D740
00F07000A700
00B4A0007E00
0078D0002E00
003EC0001D00
002F80000400
001F40000000
000500000000
ENDCHAR
STARTCHAR wdieresis
ENCODING 7813
SWIDTH 566 0
DWIDTH 16 0
BBX 14 21 1 0
BITMAP
0070A000
00A0D000
00000000
00000000
00000000
00000000
00040040
C02C00D0
E03E00E0
B03B40E0
7436C0E0
3874D0E0
2C74B0E0
1D7438E0
0BB41DE0
07F00AE0
03F003E0
02F002E0
01F000F0
00F00010
00600000
ENDCHAR
STARTCHAR Ygrave
ENCODING 7922
SWIDTH 483 0
DWIDTH 14 0
BBX 13 28 0 0
BITMAP
00100000
002C0000
001E0000
00070000
00010000
00000000
00000080
000001C0
00000280
00000340
50000700
74000A00
2C000D00
1E001C00
07802C00
02D03800
00B47400
003DB000
000FD000
0007C000
00038000
00074000
00070000
000A0000
000D0000
001C0000
00280000
00240000
ENDCHAR
STARTCHAR ygrave
ENCODING 7923
SWIDTH 363 0
DWIDTH 10 0
BBX 10 32 0 -11
BITMAP
010000
038000
01E000
00B000
001000
000000
000050
0000A0
6000A0
7800A0
2D00E0
0E00E0
0B40E0
03C0D0
01E0D0
00B4D0
003DD0
001FD0
000BD0
0003D0
0002D0
0001C0
0001C0
0001C0
0002C0
000280
000280
000280
000380
000340
000340
000140
ENDCHAR
STARTCHAR endash
ENCODING 8211
SWIDTH 399 0
DWIDTH 11 0
BBX 11 4 0 5
BITMAP
0002F8
006FE4
1BE900
690000
ENDCHAR
STARTCHAR emdash
ENCODING 8212
SWIDTH 549 0
DWIDTH 15 0
BBX 14 4 0 5
BITMAP
00000590
0006BFE0
1AFFA500
6A500000
ENDCHAR
STARTCHAR quoteleft
ENCODING 8216
SWIDTH 155 0
DWIDTH 4 0
BBX 2 9 1 9
BITMAP
40
E0
E0
E0
A0
A0
A0
60
10
ENDCHAR
STARTCHAR quoteright
ENCODING 8217
SWIDTH 155 0
DWIDTH 4 0
BBX 2 9 1 9
BITMAP
40
E0
E0
E0
A0
A0
A0
60
10
ENDCHAR
STARTCHAR quotesinglbase
ENCODING 8218
SWIDTH 155 0
DWIDTH 4 0
BBX 2 8 1 0
BITMAP
50
B0
B0
B0
70
70
70
30
ENDCHAR
STARTCHAR quotedblleft
ENCODING 8220
SWIDTH 212 0
DWIDTH 6 0
BBX 5 8 0 14
BITMAP
7080
34C0
34C0
34C0
34C0
24C0
24C0
1400
ENDCHAR
STARTCHAR quotedblright
ENCODING 8221
SWIDTH 212 0
DWIDTH 6 0
BBX 5 8 0 14
BITMAP
7080
34C0
34C0
34C0
34C0
24C0
24C0
1400
ENDCHAR
STARTCHAR quotedblbase
ENCODING 8222
SWIDTH 212 0
DWIDTH 6 0
BBX 4 8 1 0
BITMAP
C1
D3
D3
D3
93
93
A3
60
ENDCHAR
STARTCHAR dagger
ENCODING 8224
SWIDTH 268 0
DWIDTH 8 0
BBX 9 23 -1 -1
BITMAP
010000
074000
074000
074000
070000
070000
070540
07BF80
1FF800
BF4000
BB0000
070000
074000
074000
074000
074000
074000
034000
034000
034000
034000
038000
014000
ENDCHAR
STARTCHAR daggerdbl
ENCODING 8225
SWIDTH 326 0
DWIDTH 9 0
BBX 9 23 0 -1
BITMAP
010000
028000
028000
038000
038000
038000
038180
03AFC0
0BF900
7F8000
7B4040
03AFC0
1BF900
7F8000
138000
038000
038000
028000
028000
028000
02C000
02C000
014000
ENDCHAR
STARTCHAR bullet
ENCODING 8226
SWIDTH 189 0
DWIDTH 5 0
BBX 4 4 1 6
BITMAP
7D
FE
BD
24
ENDCHAR
STARTCHAR ellipsis
ENCODING 8230
SWIDTH 387 0
DWIDTH 11 0
BBX 9 2 1 0
BITMAP
A19180
E2D380
ENDCHAR
STARTCHAR guilsinglleft
ENCODING 8249
SWIDTH 409 0
DWIDTH 11 0
BBX 10 15 1 3
BITMAP
000020
0000B0
0007D0
001F40
007D00
02E000
0B4000
7C0000
B40000
3E0000
0BD000
01F900
002F90
0002D0
000040
ENDCHAR
STARTCHAR guilsinglright
ENCODING 8250
SWIDTH 450 0
DWIDTH 13 0
BBX 10 16 1 3
BITMAP
100000
B80000
2F4000
06F400
007E40
0007D0
0000B0
0000A0
0002C0
000B40
003D00
01F400
0BD000
2E0000
780000
500000
ENDCHAR
STARTCHAR fraction
ENCODING 8260
SWIDTH 306 0
DWIDTH 9 0
BBX 8 22 0 -2
BITMAP
0005
000A
000D
001C
0028
0034
0070
00A0
00D0
01C0
0280
0340
0300
0600
0900
0D00
1C00
2800
3400
7000
A000
9000
ENDCHAR
STARTCHAR Euro
ENCODING 8364
SWIDTH 589 0
DWIDTH 17 0
BBX 16 22 0 -1
BITMAP
00001400
0000BF40
0002D280
00074040
000A0000
001D0000
00280000
00340000
00740000
01BAA400
3FFE4000
15D00000
00D01500
01DAF800
06F94000
BEC00000
11C0000E
01C0002D
00E001B8
00796FD0
002FFE00
00014000
ENDCHAR
STARTCHAR trademark
ENCODING 8482
SWIDTH 1278 0
DWIDTH 36 0
BBX 35 22 0 0
BITMAP
000000000400000100
000000001F00000380
000070156FC0000780
0005BFFFEEE0000B80
2BFFF9500DB0000E80
BA5074000D38001DC0
00003400092C0029C0
00003800090E0035C0
000028000A0B0070C0
000028000A0380A0D0
000028000A02C0D0D0
00002C000B00E1C090
00001C000700B28090
00001D0007003B40A0
00001D0007002F00A0
00000D0007400D0060
00000E000740000070
00000E000740000070
00000B000780000074
00000B000780000038
000007000780000038
000007000380000024
ENDCHAR
STARTCHAR minus
ENCODING 8722
SWIDTH 358 0
DWIDTH 10 0
BBX 9 2 1 7
BITMAP
5ABF40
AA9500
ENDCHAR
STARTCHAR commaaccent
ENCODING 63171
SWIDTH 450 0
DWIDTH 13 0
BBX 2 7 5 -9
BITMAP
40
E0
E0
E0
E0
D0
C0
ENDCHAR
STARTCHAR fi
ENCODING 64257
SWIDTH 409 0
DWIDTH 11 0
BBX 9 26 1 -1
BITMAP
02D000
07F400
0B6800
0F0C00
0E0500
1E0340
1E0000
1D0000
1D0000
1D0180
1D02C0
1C2FC0
1EFFC0
2F92C0
FC02C0
4D02C0
0D02C0
0D02C0
0E02C0
0E02C0
0E01C0
0A01C0
0A01C0
0A01C0
0A01C0
000040
ENDCHAR
STARTCHAR fl
ENCODING 64258
SWIDTH 416 0
DWIDTH 12 0
BBX 10 25 1 0
BITMAP
02D000
07F400
0B6A80
0F0E80
0E0580
1E01C0
1E01C0
1D01C0
1D00C0
1D00C0
1D01C0
1C2FD0
1EFDD0
2F90D0
FC00D0
4D00D0
0D00D0
0D0090
0E00D0
0E00E0
0E00E0
0A00E0
0A00E0
0A00E0
0A00E0
ENDCHAR
STARTCHAR .notdef
ENCODING -1
SWIDTH 450 0
DWIDTH 13 0
BBX 1 1 0 0
BITMAP
00
ENDCHAR
STARTCHAR .null
ENCODING -1
SWIDTH 0 0
DWIDTH 0 0
BBX 1 1 0 0
BITMAP
00
ENDCHAR
STARTCHAR nonmarkingreturn
ENCODING -1
SWIDTH 450 0
DWIDTH 13 0
BBX 1 1 0 0
BITMAP
00
ENDCHAR
ENDFONT
